<?xml version="1.0" encoding="utf-8"?>
<!-- Generator: Adobe Illustrator 25.2.1, SVG Export Plug-In . SVG Version: 6.00 Build 0)  -->
<svg version="1.1" baseProfile="tiny" id="Ebene_1" xmlns="http://www.w3.org/2000/svg" xmlns:xlink="http://www.w3.org/1999/xlink"
	 x="0px" y="0px" viewBox="0 0 1190.6 841.9" overflow="visible" xml:space="preserve">
<g>
	<path fill="none" d="M16.5,776.9c328.5,5.9,824.8,7,1160.4-12.5c-374.3-8.7-793.7,18.8-1152.9,6c343.3-15.9,710.1,0.5,1053.4-17.9
		c-237.1-19.1-740.6,1.3-1023.2-1.7c312.8-11.5,633.6-9.2,946.5-18.2c-267.3-3.3-565,2.8-847.4,6.1c312.9-6.4,625.9-10.3,938.9-16.8
		c-438.9-18.4-780.8-2-916.3-2.6c321-6.6,549-11.5,686.9-16.6c-175.7-2.7-358.8,4.8-534.4,4.7c221.3-7.1,458-8.1,679.2-19
		c-198.6-4.7-412.3-0.4-618.6-3.7c122.1-3.8,244.2-5,358.6-11.1"/>
	<image width="1164" height="151" xlink:href="4188C03C.png"  transform="matrix(1 0 0 1 14 668.89)">
	</image>
</g>
<g>
	<path fill="none" d="M1014.2,378.5c-59.4,28.6-102.3,90.3-120,152.1"/>
	<path fill="#333333" d="M1010.8,373.7c-61.6,29.9-105,91.1-123.7,155.8c-2.5,8.6,12.3,9,14.3,2.1c17.7-61.3,57.7-120,116.2-148.4
		c2.9-1.4,5.6-5,3.4-8.1C1018.7,371.9,1013.8,372.2,1010.8,373.7L1010.8,373.7L1010.8,373.7z"/>
</g>
<g>
	<g>
		<g>
			<path fill="none" d="M897.9,550.4c36.8-1.1,77.8,24.5,115.6,30.1"/>
			<path fill="#333333" d="M897.4,555.3c19.5-0.4,38.5,6.5,56.7,13c18.8,6.7,37.5,14,57.3,17.1c6.5,1,13.1-8.3,4.4-9.7
				c-40-6.2-75.9-31-117.3-30.1C891,545.6,888.6,555.5,897.4,555.3L897.4,555.3L897.4,555.3z"/>
		</g>
		<g>
			<path fill="none" d="M1020.6,584c2.5,58.8-32.9,112.1-46.3,166.6"/>
			<path fill="#333333" d="M1014.1,584.6c2.1,59.4-32.3,110.6-46.3,166.6c-1.4,5.5,11.7,3.7,13-1.3c14-55.9,48.4-107.2,46.3-166.6
				C1026.9,577.2,1013.9,579.7,1014.1,584.6L1014.1,584.6z"/>
		</g>
		<g>
			<path fill="none" d="M974.3,750.5c28.9,18.3,66.9,10.3,96.3,3.5"/>
			<path fill="#333333" d="M969.2,753.6c30.8,19,69.2,11.2,102.3,3.6c1.8-0.4,6.3-2.3,5.6-4.9c-0.7-2.7-5.5-1.9-7.3-1.5
				c-29.6,6.8-62.8,13.6-90.3-3.4C975.9,745.2,964,750.4,969.2,753.6L969.2,753.6L969.2,753.6z"/>
		</g>
	</g>
	<g>
		<g>
			<path fill="none" d="M883.8,556.6c23.6,26,49,68.5,66.5,97.7c-29.6,34.2-78,41.3-116.7,58.6"/>
			<path fill="#333333" d="M877.8,558.9c14,15.6,26,33,37.4,50.5c5.9,9.1,11.7,18.4,17.3,27.7c2.6,4.3,5.2,8.6,7.8,12.9
				c0.4,0.6,3.6,5.1,3.1,5.6c-1.7,1.9-3.4,3.7-5.2,5.4c-28.7,27.9-71.6,34.2-106.9,49.9c-1,0.4-5.7,2.6-3.7,4.4
				c2,1.7,6.4,0.6,8.4-0.3c41.1-18.2,89.2-25.5,120.3-60.8c0.4-0.4,0.6-1,0.5-1.5c-20.3-33.8-40.4-68.9-66.9-98.3
				C887.3,551.4,875.1,555.9,877.8,558.9L877.8,558.9L877.8,558.9z"/>
		</g>
		<g>
			<path fill="none" d="M831.5,713.2c-11.8,22.3,22.8,28.1,44.7,42.9"/>
			<path fill="#333333" d="M825.4,712.7c-5.7,11.4-1,20.3,8.9,27.1c11.6,7.9,25.2,12.1,36.9,19.9c4.3,2.8,15.9-3.1,10.1-7
				c-10.4-6.9-22.2-11.4-33-17.5c-8.5-4.8-15.7-11.3-10.6-21.4C840.7,707.5,827.7,708.1,825.4,712.7L825.4,712.7L825.4,712.7z"/>
		</g>
	</g>
</g>
<g>
	<path fill="#FFFFFF" d="M97.4,406.2c85.1,20.3,156.1-93.8,50.3-117.2c-65-13.5-123.4,93.1-49.7,119.1"/>
	<g>
		<path fill="none" d="M97.4,406.2c85.1,20.3,156.1-93.8,50.3-117.2c-65-13.5-123.4,93.1-49.7,119.1"/>
		<path fill="#333333" d="M92.7,408.6c33.4,7.7,69.9-2.8,93.9-27.4c18.9-19.3,28.4-49.9,9-72.3c-11.5-13.3-30.4-20.3-47.3-23
			s-34.8,2.3-49.2,11.1c-25.7,15.6-47.1,48.3-39.9,79.3c4,17.2,18.1,28.4,34,34.2c2.4,0.9,5.9-0.3,8.1-1.4c1.2-0.6,3.8-2.5,1.3-3.4
			C87,400,74.4,389,70.6,372.4c-3.5-15.1,1.1-31,8.4-44.3c7.9-14.2,20.2-26.4,34.9-33.3c16.1-7.6,33.7-3.6,49.5,3.1
			c13.8,5.9,26.1,16.4,30.3,31.3c3.7,12.9,0.1,26.6-6.3,38c-15.7,27.9-48.4,42.6-79.6,37.8c-1.9-0.3-3.7-0.7-5.5-1.1
			c-2.8-0.5-5.6,0-8.1,1.4C93.1,405.7,90.1,408,92.7,408.6L92.7,408.6L92.7,408.6z"/>
	</g>
</g>
<g>
	<path fill="none" d="M115.8,380.6c23.8,8.2,42.3,3.4,50.6-16"/>
	<path fill="#333333" d="M114.1,382.5c10.9,3.6,22.6,5.6,33.8,2.2c9.9-3,17-10.5,21.2-19.8c1.3-3-4.5-2.8-5.5-0.6
		c-3.6,8-9.2,14.3-17.8,16.9c-9.2,2.8-19.5,0.5-28.3-2.5C115.2,378,110.7,381.4,114.1,382.5L114.1,382.5L114.1,382.5z"/>
</g>
<g>
	<path fill="#333333" stroke="#333333" stroke-width="5.639" d="M63.4,334l1.4,3.2c0.7,1.7,2.5,2.5,4.2,2c0.1,0.2,0.2,0.5,0.3,0.7
		c0.3,0.7,0.6,1.5,1,2.4c0.8,1.8,1.8,3.9,2.9,6c2,4.1,4.2,8,6.7,11.9c0.5,0.7,1,1.5,1.6,2.1c1.3,1.2,2.9,2.1,4.6,2.5
		c1.8,0.5,3.7,0.7,5.5,0.8c4.1,0.1,8.1-0.3,12.1-1.2c7.8-1.7,13.6-5.2,16.8-10.1c0.7-1.1,1.3-2.2,1.7-3.4c0.5-1.3,1.1-2.7,1.6-4.2
		c1-3,1.9-6.2,2.5-8.8c0.4-1.4,0.6-2.9,0.8-4.4c0.1-1.4,0-2.8-0.3-4.1c-0.1-0.3-0.1-0.6-0.2-0.9c1.3-2.6,4.4-3.7,7.1-2.4
		c0.4,0.2,0.8,0.5,1.2,0.8l0.1,0c0,0.2,0.1,0.4,0.1,0.6c0.3,1.4,0.7,2.7,1.4,3.9c0.8,1.3,1.6,2.5,2.6,3.7c1.7,2.1,3.8,4.7,6,7
		c1.1,1.2,2.1,2.2,3.2,3.2c0.9,0.9,1.9,1.7,3,2.4c4.9,3.1,11.6,3.9,19.4,2.3c4-0.8,7.9-2.2,11.5-3.9c1.7-0.8,3.3-1.8,4.7-3
		c1.4-1.1,2.5-2.5,3.2-4.2c0.3-0.8,0.5-1.7,0.6-2.6c0.6-4.5,1-9,1.2-13.6c0.1-2.4,0.1-4.8,0.1-6.7c0-1,0-1.8-0.1-2.6
		c0-0.3,0-0.5-0.1-0.7c1.8-0.2,3.1-1.7,3-3.5l0-3.5c0.1-1.6-1.2-3-2.8-3.1c-0.1,0-0.2,0-0.3,0l-7.9,0.1c-0.3,0-0.7,0.1-1,0.2l-0.7,0
		c0,0-3.1-0.2-7.2-0.1c-4.6,0-9.2,0.4-13.8,1.3c-0.8,0.2-1.6,0.4-2.3,0.6c-4.3,1.3-8.5,2.8-12.7,4.5c-1.9,0.8-3.7,1.7-5.4,2.8
		c-1.5,0.9-2.9,2.1-3.9,3.6c-0.1,0.1-0.1,0.2-0.1,0.2c-0.3,0-0.6,0-0.9,0.1l-14.4,3.1c-0.3,0.1-0.5,0.2-0.8,0.3c0,0,0,0-0.1-0.1
		c-1.5-0.9-3.2-1.4-5-1.6c-2-0.3-4-0.4-6.1-0.3c-4.5,0.1-9,0.5-13.4,1.1c-0.8,0.1-1.6,0.2-2.4,0.4c-4.5,1.1-8.9,2.6-13.1,4.5
		c-3.8,1.6-6.5,3.1-6.5,3.1l-0.6,0.3c-0.3,0-0.7,0.1-1,0.3l-7.3,3.2c-1.5,0.6-2.3,2.3-1.7,3.8C63.3,333.8,63.3,333.9,63.4,334z
		 M140.8,326.1c-0.3-1.4-0.4-2.8-0.2-4.2c0.1-1.2,0.5-2.4,1.1-3.4c0.6-0.7,1.3-1.3,2.1-1.8c2.4-1.4,4.8-2.6,7.4-3.5
		c2.9-1.1,6.2-2.2,9.2-3.1c0.6-0.2,1.2-0.3,1.9-0.5c0,0,0,0,0,0c4.1-0.8,8.3-1.1,12.6-1.1c2,0,3.7,0,4.9,0c0.3,0,0.8,0,0.8,0
		s0.4,0,0.4,0c1.1,0.6,2.1,1.3,3.1,2c0.5,0.4,1,0.8,1.4,1.3c0.2,0.2,0.3,0.4,0.4,0.7c0.1,0.4,0.1,0.9,0.1,1.3
		c0.1,2.6,0,7.7-0.3,12.5c-0.2,2.4-0.4,4.7-0.6,6.6c-0.1,0.9-0.2,1.8-0.4,2.4c-0.1,0.4-0.2,0.9-0.3,1.3c-0.3,0.6-0.8,1.2-1.3,1.6
		c-1.8,1.4-3.8,2.5-5.9,3.3c-2.5,1-5.1,1.8-7.8,2.4c-6.8,1.5-11.9,0.5-15-1.4c-1.1-0.8-2.1-1.7-3.1-2.6c-2.1-2.1-4-4.2-5.9-6.5
		c-0.9-1.1-1.7-2.2-2.4-3.1c-0.5-0.7-1-1.3-1.4-2.1C141.2,327.6,141,326.8,140.8,326.1L140.8,326.1z M74.4,336.7
		c0-0.3,0-0.5,0.1-0.8c0.2-0.6,0.4-1.2,0.7-1.8c0.6-1.1,1.2-2.1,2-3.1c0,0,0,0,0.1,0c0.1,0,0.1-0.1,0.2-0.1c0,0,0,0,0.1,0
		c0.2-0.1,3.4-1.6,5.2-2.4c3.8-1.7,7.8-3.1,11.9-4.1l0,0c0.7-0.1,1.3-0.3,1.9-0.3c3.1-0.4,6.5-0.8,9.6-0.9c2.7-0.2,5.5-0.1,8.2,0.2
		c0.9,0.1,1.8,0.3,2.6,0.8c1,0.7,1.8,1.6,2.4,2.7c0.7,1.2,1.2,2.5,1.5,3.9c0.2,0.7,0.2,1.5,0.2,2.3c-0.1,0.8-0.2,1.6-0.4,2.4
		c-0.2,1.1-0.6,2.4-0.9,3.8c-0.7,2.8-1.7,5.9-2.7,8.3c-0.5,1.3-1,2.5-1.7,3.7c-2,3.1-6.3,6-13.1,7.5c-2.7,0.6-5.4,0.9-8.1,1
		c-2.3,0.1-4.5,0-6.7-0.5c-0.7-0.1-1.3-0.4-1.9-0.9c-0.3-0.3-0.6-0.7-0.8-1.1c-0.4-0.6-0.8-1.3-1.3-2.1c-1-1.6-2.1-3.6-3.2-5.7
		c-2.2-4.2-4.5-8.8-5.4-11.3C74.7,337.5,74.6,337.1,74.4,336.7z"/>
	<path fill="#FFFFFF" stroke="#333333" stroke-width="5.639" d="M66,333.5c0.2,0.9,1.7,1.3,3.3,1s2.8-1.3,2.6-2.2s-1.6-1.3-3.3-1
		S65.8,332.6,66,333.5z"/>
	<path fill="#FFFFFF" stroke="#333333" stroke-width="5.639" d="M185.9,307.7c0.2,0.9,1.7,1.3,3.3,1s2.8-1.3,2.6-2.2s-1.6-1.3-3.3-1
		S185.7,306.8,185.9,307.7z"/>
</g>
<ellipse transform="matrix(0.9985 -5.402653e-02 5.402653e-02 0.9985 -17.3042 9.8913)" fill="#333333" cx="174.3" cy="325" rx="5.3" ry="5.3"/>
<path fill="#333333" d="M102.4,338.2c0.2,2.9,2.7,5.2,5.6,5c2.9-0.2,5.2-2.7,5-5.6c-0.2-2.9-2.7-5.2-5.6-5
	C104.5,332.8,102.3,335.3,102.4,338.2C102.4,338.2,102.4,338.2,102.4,338.2z"/>
<g>
	<path fill="none" d="M154.3,417.4c40.9,43.5,66.9,73,81.4,138.6"/>
	<path fill="#333333" d="M149.4,419.2c18,19.1,36,38.5,50.3,60.6c15.2,23.7,24.7,50.2,30.8,77.6c0.5,2.2,11-0.4,10.4-2.8
		c-6.1-27.5-15.7-53.8-30.8-77.6c-14.3-22.5-32.7-42-50.9-61.3C157.4,413.7,147.9,417.5,149.4,419.2L149.4,419.2L149.4,419.2z"/>
</g>
<g>
	<path fill="none" d="M250.1,566.6c43.4,62.8,96.3,131,129.3,200"/>
	<path fill="#333333" d="M244.3,568.1c45,65.2,94.8,128.2,129.3,200c1.3,2.6,12.2-1.4,11.4-3.1c-34.5-71.8-84.2-134.8-129.3-200
		C253.9,562.3,243.6,567,244.3,568.1L244.3,568.1L244.3,568.1z"/>
</g>
<g>
	<path fill="none" d="M233.8,566.8c7.2,50,32,88.9,42.5,135.6c-28.3,10.4-45.7,62.2-80.3,75.7"/>
	<path fill="#333333" d="M228,568.3c7,47.4,31.9,89.2,42.5,135.6l3.6-3.3c-35.8,13.8-44.7,61.4-80.3,75.7c-0.9,0.4-5.1,2.3-3.2,3.9
		c1.8,1.5,5.6,0.5,7.5-0.3c18.4-7.4,31.4-22.6,43.3-37.9c5.8-7.5,11.5-15.2,17.8-22.4c5.3-6.1,11.5-12.4,19.2-15.4
		c1.1-0.4,4-1.7,3.6-3.3c-10.6-46.4-35.5-88.2-42.5-135.6C239,562.1,227.5,564.7,228,568.3L228,568.3L228,568.3z"/>
</g>
<g>
	<path fill="none" d="M174.3,783c25.8,4.2,48.9,12.9,74.4,21.8"/>
	<path fill="#333333" d="M167.5,786.2c25.6,4.3,50,13.3,74.4,21.8c3.4,1.2,8.5-0.7,11.6-2.1c1.7-0.8,5.4-3.2,2-4.4
		c-24.4-8.5-48.8-17.5-74.4-21.8c-3.8-0.6-8.1,0.4-11.6,2.1C168.3,782.4,163.6,785.6,167.5,786.2L167.5,786.2z"/>
</g>
<g>
	<path fill="none" d="M382.5,763.6c21.6-5.6,40.5-16.1,56.6-29.2"/>
	<path fill="#333333" d="M383.4,766.8c23.9-6.4,46.1-17.7,65.3-33.2c3.8-3.1-3.4-3.4-4.9-3.3c-4.8,0.4-10.2,1.9-14.1,5
		c-14.2,11.5-30.2,20.5-48,25.3c-1.7,0.5-10.5,2.8-9.7,6S381.6,767.2,383.4,766.8L383.4,766.8z"/>
</g>
<g>
	<path fill="none" d="M149.7,452.7c-32.8,69.7,101.9,95.3,149.1,87.3"/>
	<path fill="#333333" d="M144.2,452.1c-31.8,68.9,81.1,91.7,126.5,93.3c9.2,0.5,18.5,0.1,27.6-1.3c2.5-0.4,5.9-1.6,6.3-4.6
		c0.3-2.7-3.1-4-5.3-3.7c-13.4,2.2-27.1,1.6-40.5,0.2c-16.9-1.7-33.6-5.1-49.8-10.3c-24.4-7.8-59.7-24-58.6-54.6
		c0.4-6.2,2-12.3,4.7-17.9C157.9,447.4,146.3,447.6,144.2,452.1L144.2,452.1L144.2,452.1z"/>
</g>
<g>
	<path fill="none" d="M113.6,379.8c1.5,10.8,16.9,26.1,26.1,15.4"/>
	<path fill="#333333" d="M107.9,381.4c2.9,16.4,23.4,29.8,36.7,15.7c1.4-1.5,1.3-3.7-0.2-5.1c-0.4-0.4-0.9-0.6-1.4-0.8
		c-2.9-1-6.1-0.1-8.1,2.2c-5.4,5.7-14.7-10.6-15.5-15.1C118.4,372.7,106.8,375.7,107.9,381.4L107.9,381.4L107.9,381.4z"/>
</g>
<g>
	<path fill="none" d="M193.4,433.8c59.7-13.1,133.7-24.9,178.4-56.7"/>
	<path fill="#333333" d="M194.1,436.7c31.9-7,64-13,95.6-21.5c29.7-8.1,59.9-18.4,85.4-36.2c5.8-4.1-3.1-5.9-6.6-3.5
		c-24.4,17.1-53.3,26.7-81.9,34.4c-31,8.4-62.6,14.3-94,21.1c-1.6,0.4-5.1,2-4.5,4.2C188.8,437.6,192.5,437,194.1,436.7L194.1,436.7
		L194.1,436.7z"/>
</g>
<g>
	<path fill="#FFFFFF" d="M1000.6,343c84.7,46.9,194.2-53.6,88.3-109.9c-65.2-33.7-159.1,62.5-88.3,112.1"/>
	<g>
		<path fill="none" d="M1000.6,343c84.7,46.9,194.2-53.6,88.3-109.9c-65.2-33.7-159.1,62.5-88.3,112.1"/>
		<path fill="#333333" d="M994.6,345.3c34.9,19,78.4,15.9,111.5-5.6c13.3-8.6,24.9-21.1,30.2-36.2c5.2-15,2.1-30.9-6.8-43.9
			c-11.1-16.1-30.3-29.5-49.3-34.3c-17.6-4.4-36.6-1.4-53.2,5.4c-29.7,12.1-59.5,41-57.9,75.4c0.8,17.4,11.9,31.7,25.6,41.4
			c3.1,2.2,14.3-2.9,12-4.5c-14.5-10.3-24.7-24.9-24.9-43.1c-0.1-16.4,8.5-31.9,19.2-43.8c11.3-12.5,26.4-22,42.9-25.8
			c18.9-4.4,36.6,2.4,52.1,12.9c15.1,10.3,28.2,25,30.1,43.8c1.6,15.5-6.1,30.2-16.6,41.1c-26.3,27.3-69,30.5-101.7,13.2l-1.1-0.6
			c-2.4-1.3-5.8-0.4-8.3,0.5C997.8,341.5,992.4,344.1,994.6,345.3L994.6,345.3L994.6,345.3z"/>
	</g>
</g>
<g>
	<path fill="none" stroke="#FF8000" stroke-width="2" stroke-linecap="round" stroke-linejoin="round" d="M973.5,267.3l-1.2-0.8
		c0,0,5.6,0,5.6,0l-5.1-3.2c0,0,11.5,3.4,11.5,3.4s-12.5-7.4-12.3-7.7l17.9,6.6c0.2-0.3-17.4-10.4-17.2-10.8
		c0,0,24.5,10.7,24.6,10.5l-24.2-15.1l31.2,14.9c0,0-30.8-18-30.3-18.9c0,0,37.2,19.2,37.6,18.6L974,241.4l43.4,23.3
		c0,0-43.7-25.7-43-26.9c0,0,49.1,27.7,50,26.3c0,0-49.6-29.5-48.9-30.6c0.5-0.8,55.1,31.6,56.1,30c0.9-1.4-55.3-33.4-54.8-34.2
		c0.1-0.1,62.5,34.3,62.6,34.1c0,0-61.5-37.6-61.1-38.2c0,0,67.2,39.5,68.1,38c0.8-1.4-67.6-39.6-66.4-41.5c0,0,70,42.6,70.9,41.1
		c0.4-0.6-69.6-41.8-68.8-43c0.2-0.3,73,42.3,73.3,42c0.6-1-74.2-42.8-72.6-45.4c1.7-2.7,79.8,45.7,79.8,45.7l-77.9-48.7
		c0.2-0.4,82.1,48.2,82.1,48.2l-80.4-50.2c0.5-0.8,87.2,50.3,87.2,50.3s-86.6-51-85.2-53.3c0.9-1.4,90.7,52.9,90.7,52.9
		c1.9-3.1-90.6-52.5-88.7-55.4l95.1,54.2c0.7-1.1-93-58.1-93-58.1l99.9,58.1l-96.7-60.4c0,0,102.2,60.5,102.5,60
		c1-1.6-101.5-63.4-101.5-63.4s105.3,65.1,106.6,63c1.3-2-104-65-104-65l111.4,64.9c0.1-0.2-108.5-67.8-108.5-67.8
		c2-3.3,114,67.7,114,67.7c0.5-0.8-110.5-69-110.5-69s116.3,68.6,116.5,68.2l-112.9-70.5l112.6,66.3l-110.2-68.9
		c1.6-2.5,107.5,67.2,109.5,64L1015.4,183c0.9-1.4,104.5,60.7,104.5,60.7c0.2-0.3-101.3-61.5-100.5-62.8
		c0.5-0.8,99.8,58.7,99.8,58.7s-97.7-58.9-96.8-60.5c0,0,93.8,59.9,95.8,56.7c0,0-93.9-55.8-92.6-57.9c1.1-1.7,91.4,54.3,91.5,54.1
		c1.3-2-86.9-54.3-86.9-54.3c1.2-1.9,83.1,51.4,84.6,48.9c0,0-83.1-49.4-82-51.2l79.4,45.1c0.9-1.4-78-45-76.4-47.7
		c0.3-0.5,73.4,43.6,74.3,42.3l-70.2-43.9c0.5-0.8,64.4,40,65.8,37.8c0.7-1.1-55.5-32.2-54.4-34c1.1-1.7,50.1,28.8,50.4,28.3
		l-43-26.8c0.6-0.9,34.3,19.5,35,18.5c0.2-0.3-25.8-15.5-25.5-16"/>
	<g>
		<path fill="none" d="M1049,176.6c28.6,20.2,27.8,56.5,14.7,85.8"/>
		<path fill="#333333" d="M1045,178.1c27.8,20.1,27.2,56.2,14.5,85.1c-0.7,1.6,7.4,0.8,8.3-1.4c12.9-29.4,13.4-66.1-14.9-86.6
			C1051,173.7,1043.6,177.1,1045,178.1L1045,178.1L1045,178.1z"/>
	</g>
	<g>
		<path fill="none" d="M1028.6,178.1c25.2,17.6,15,54.2,6.7,79.4"/>
		<path fill="#333333" d="M1024.7,179.8c25.1,18.2,14.4,53.8,6.5,78.3c-0.9,2.8,7.5,1.7,8.4-1.1c8.2-25.1,18.8-61.8-7-80.4
			C1030.2,174.8,1022.5,178.1,1024.7,179.8L1024.7,179.8L1024.7,179.8z"/>
	</g>
	<path fill="none" stroke="#FF8000" stroke-width="2" stroke-linecap="round" stroke-linejoin="round" d="M963.6,267.7
		c0.1-0.1-2.6-1.5-2.5-1.6c0,0,9.9,1.9,10,1.8c0.1-0.2-8.1-4.8-8-5c0.3-0.4,16.3,5.2,16.3,5.2l-13.3-8.3c0.2-0.4,19.6,8.7,20,8.1
		c0,0-16.8-10.2-16.7-10.4c0.2-0.3,21.9,9.3,21.9,9.3S973.8,256.4,974,256c0.2-0.4,22.7,11.6,23,11.2l-20.5-12.8l25.6,12
		c0.2-0.4-21.8-12.7-21.4-13.4c0,0,25.3,13.5,25.8,12.7c0,0-23.5-14.7-23.5-14.7c0.3-0.5,28.7,14.5,28.7,14.5
		c0.5-0.7-24.6-15.4-24.6-15.4c0.6-1,32.6,15.6,32.6,15.6l-26.9-16.8l34.1,16.2c0,0-29.9-18.4-29.8-18.6
		c0.7-1.1,35.7,17.8,35.7,17.8l-30.2-18.9c0.6-0.9,38.3,20.1,38.9,19.2c0.3-0.4-34.7-21.7-34.7-21.7s41.1,20.9,41.2,20.7
		c0.5-0.7-33.7-21.1-33.7-21.1c0.5-0.8,40.3,20.8,40.3,20.8c0.7-1.1-35.2-22-35.2-22c0.8-1.2,43.3,21.9,43.3,21.9
		c0.1-0.1-37.2-21.6-36.5-22.8c0.8-1.3,42.8,22.2,42.8,22.2c0.8-1.3-36.8-23-36.8-23c0.3-0.4,43.5,22.5,43.5,22.5l-37.7-23.6
		c0,0,44,24.5,44.4,23.9c0,0-40.9-24.1-40.3-25.2c0.1-0.2,47.1,25.2,47.4,24.8l-40.4-25.2c0.5-0.9,43.9,24.6,44.1,24.3
		c0.5-0.8-40.2-24.6-40-25c0.6-0.9,47.3,25.4,47.3,25.4l-40.4-25.2c0,0,44.6,25.4,45.3,24.3c0.8-1.2-40-24.5-39.8-24.9
		c0,0,45.1,24.8,45.3,24.5L1072,236c0.8-1.2,45.3,25.6,45.9,24.5l-39.8-24.8c0.9-1.5,45.3,24.6,45.6,24.2c0,0-39.9-24.6-39.8-24.9
		c0,0,45.3,24.2,45.4,23.9l-38-23.7c0,0,42.4,23.1,42.6,22.8l-36.6-22.8c0,0,40.2,21.8,40.5,21.3l-34.2-21.4
		c0.3-0.5,38.6,20.6,38.6,20.5c0.6-1-34.2-21.4-34.2-21.4l36.2,19c0,0-30.2-17.5-29.6-18.5c0.5-0.7,32.6,16,32.9,15.5l-23.4-14.6
		c0,0,20.3,8.1,20.4,7.8c0.1-0.1-8.5-5.3-8.5-5.3"/>
	<path fill="none" stroke="#333333" stroke-width="6.72" d="M1118.7,238.5c-9.4-34.4-36.2-59.6-67.6-62.2c-3.1-0.3-9.5-4.6-12.6-4.4
		c-4.8,0.3-6.1,5.4-10.5,6.6c-50.8-0.6-63.3,48.7-66.8,84.7"/>
	<g>
		<path fill="none" d="M1125,261.2c7.7-1.6,32-5.7,18.6-17.8c-10.5-9.7-43-8-56.4-7.6c-25.6,0.5-51.2,3.1-76.4,7.6
			c-7.7,1.6-60.3,17.8-48.6,25.5c1.2,0.8,7.3,0.4,8.5,0.4L1125,261.2z"/>
		<path fill="#333333" d="M1126,264.9c7.6-1.6,15.4-3.2,22.1-7.4c7.9-4.9,6.7-12.7-0.1-18c-7.4-5.7-18.1-6.8-27.1-7.6
			c-10.1-0.9-20.2-0.5-30.3-0.2c-41.7,1.4-85.7,3.9-123.5,23.5c-4.5,2.3-11.8,5.9-12.7,11.5c-0.4,2.4,1.3,4.1,3.1,5.4
			c1.5,1.1,4,1.1,5.8,1.2c2.3,0.1,4.6,0,6.9-0.1l18.4-1l91.6-4.8l44.2-2.3c2.5-0.1,6.5-1.8,7.1-4.6c0.6-3.1-3.6-3.4-5.6-3.3
			l-146.2,7.7l-7.6,0.4l-0.4,0c2.7-0.1-2.9,0.1-3.7,0.1c-1.6,0-1-0.2-0.4,0.3c-0.2-0.2-0.7-1.1-0.4-0.3c0-0.1,0-0.2,0-0.4
			c3.3-3.9,11-6.6,16.2-8.7c7-2.8,14.1-5.2,21.3-7.4c8.8-2.6,17.9-3.8,26.9-5c15.3-2.1,30.6-3.4,46-4c10.2-0.4,20.5-0.8,30.7-0.5
			c9.3,0.3,20.2,0.6,28.3,5.6c3.8,2.3,6.6,6.4,1.8,8.6c-4.5,2.1-9.6,2.8-14.3,3.8c-2.1,0.4-6.1,2.6-5.3,5.3
			C1119.5,265.8,1123.8,265.3,1126,264.9z"/>
	</g>
</g>
<g>
	<path fill="none" d="M1040.5,284.8c5.6,1.8,9.3,4.6,12.1,10.1"/>
	<path fill="#333333" d="M1037.4,288c4.3,1.3,7.9,4.4,10,8.3c1.2,2.2,3.9,2.3,6.1,1.7c1.3-0.4,5.6-2.3,4.4-4.5
		c-3.2-6.1-7.7-9.7-14.2-11.9c-2.7-0.7-5.5,0.1-7.4,2C1034.5,285.4,1035.2,287.3,1037.4,288L1037.4,288L1037.4,288z"/>
</g>
<g>
	<path fill="none" d="M1086.8,281.3c5.2,2.7,8.4,6,10.3,11.9"/>
	<path fill="#333333" d="M1081.8,283.1c4.8,2.3,8.4,6.5,10,11.5c0.8,2.4,11.2-0.7,10.5-2.8c-1.8-5.4-5.6-9.8-10.6-12.3
		c-1.9-1-4.9,0-6.8,0.6C1084.6,280.3,1080.2,282.2,1081.8,283.1L1081.8,283.1L1081.8,283.1z"/>
</g>
<g>
	<path fill="none" d="M1031.7,317.9c6.9,7.8,18.6,16.7,27.9,14.7"/>
	<path fill="#333333" d="M1028,319.6c7.7,8.5,18.9,17.6,31.2,15.6c1.6-0.3,4.2-1,4.5-3c0.3-1.9-2.3-2.4-3.6-2.2
		c-9.4,1.5-18.8-7.4-24.6-13.8C1033.2,313.8,1025.5,316.9,1028,319.6L1028,319.6L1028,319.6z"/>
</g>
<g>
	<path fill="none" stroke="#FF8000" stroke-width="2" stroke-linecap="round" stroke-linejoin="round" d="M50.8,332.4
		c-0.1-0.1-0.3-0.2-0.4-0.2c0.1-0.1,4.3-1.1,4.3-1.2l-5.7-3.6c0,0,11.1,2.5,11.2,2.3l-11.6-7.2c0,0,17,6.7,17.2,6.3L48,317.7l23,9.9
		c0.3-0.5-22.7-14.2-22.7-14.2c0.3-0.5,27.2,13.5,27.2,13.4c0,0-26.9-16.5-26.8-16.7c0,0,32.6,16.4,32.9,15.8
		c0.5-0.8-34-20.5-33.7-21L86,323.6c0.8-1.3-37.8-23.6-37.8-23.6l44,22.8c0.4-0.7-44.2-26.1-43.5-27.2L96.1,322
		c0.7-1.1-47.2-29-47-29.4c0,0,49.2,29.7,50.1,28.1c0,0-49.8-30.7-49.6-31c0.5-0.8,55.1,29.5,55.2,29.4L51.6,286
		c0.2-0.3,58.6,32.2,58.6,32.2s-58.6-34.8-57.8-36.1c1-1.6,60.6,36.2,61.5,34.8c0.3-0.5-61.9-38.1-61.6-38.5l66.7,37.2L54.1,275
		c0,0,70,40.5,70.2,40.1c0,0-69.3-42.7-69.1-43.1c0,0,71.9,43.2,72.8,41.8l-72-45c0,0,77.1,45.6,78.1,44l-76.2-47.6
		c0,0,80.5,47.6,81.7,45.9l-78.6-49.1l84.2,47.9c1.7-2.7-82.5-51.6-82.5-51.6l87.7,51.4c0,0-84.9-52.8-84.8-53
		c0,0,89.7,52.4,90.1,51.7l-88.5-55.3l92.4,53.6c0,0-90-55.8-89.8-56.1l94.1,55.6c0.5-0.8-91.9-57.4-91.9-57.4
		c1.1-1.8,95,57,95.4,56.5l-94.4-59c1.5-2.4,98.3,59,99,57.8c0.7-1-97.5-58.5-96.4-60.3c0,0,99.6,60.1,100.5,58.6
		c0,0-98.3-59.7-97.5-60.9c1.8-2.9,104.7,60.6,104.7,60.6l-99.7-62.3c1.5-2.4,101.1,61.7,101.9,60.4c0,0-101.4-60-99.9-62.4
		c0,0,103.4,63.9,104.9,61.4c0.5-0.8-101.3-63.3-101.3-63.3c0.4-0.7,106,62.8,106,62.8S90,234.9,91,233.4c0,0,101.5,62.3,103.2,59.6
		c0.8-1.2-100.6-59.1-98.9-61.8c1.8-2.9,97,56,97,56c0.3-0.5-95.8-59.8-95.8-59.8c1.7-2.7,93.9,55.2,94.5,54.4
		c0.5-0.8-89.3-53.1-88.1-55l84.5,47.9l-73-45.6c0.3-0.5,68.7,38.7,68.9,38.4l-63-39.3c0,0,57.5,35.1,58.7,33.2
		c0.8-1.2-51.6-32.1-51.5-32.2l44.7,23.8c0.6-0.9-34.3-21.4-34.3-21.4"/>
	<g>
		<path fill="none" d="M110.1,230.3c31.6,14.9,37.1,50.8,29.3,82"/>
		<path fill="#333333" d="M106.2,231.7c30.9,15,36.6,50.6,29.1,81.3c-0.5,2.1,7.8,0.8,8.3-1.4c7.6-31.1,1.9-67.5-29.5-82.8
			c-1.6-0.8-3.8-0.2-5.5,0.4C108.4,229.3,104.7,231,106.2,231.7L106.2,231.7L106.2,231.7z"/>
	</g>
	<g>
		<path fill="none" d="M90.4,235.2c27.8,12.9,24.1,50.8,20.3,77"/>
		<path fill="#333333" d="M87,237.3c27.5,13.4,23.1,50.6,19.5,75.5c-0.5,3.2,8,1.7,8.4-1.1c3.8-26.6,7.8-64.4-21.2-78.5
			C91.3,232.1,83.6,235.6,87,237.3L87,237.3L87,237.3z"/>
	</g>
	<path fill="none" stroke="#FF8000" stroke-width="2" stroke-linecap="round" stroke-linejoin="round" d="M41.3,334.6
		c0.1-0.1-2.8-1.7-2.7-1.7c0,0,8.7,1.1,8.8,1c0.1-0.2-6.9-4.1-6.8-4.2c0.2-0.4,13.6,3.5,13.6,3.5l-11.2-7c0.2-0.3,16.2,6.4,16.5,5.9
		c0,0-13.9-8.4-13.8-8.6c0.2-0.3,17.7,6.7,17.7,6.7s-13.8-8.2-13.6-8.5c0.2-0.3,18.3,8.7,18.5,8.4l-16.5-10.3l20.4,8.7
		c0.2-0.3-17.1-10-16.8-10.5c0,0,19.8,9.8,20.2,9.2c0,0-18.5-11.6-18.5-11.6c0.2-0.4,22.6,10.7,22.6,10.7c0.4-0.6-19.1-12-19.1-12
		c0.5-0.8,25.7,11.3,25.7,11.2l-20.9-13l26.5,11.4c0,0-23.3-14.4-23.2-14.5c0.5-0.8,27.8,12.9,27.8,12.9l-23.1-14.4
		c0.4-0.7,29.8,14.5,30.3,13.8c0.2-0.3-27.2-17-27.2-17s32,15.2,32.1,15c0.4-0.6-26-16.3-26-16.3c0.4-0.6,31.3,15.2,31.3,15.2
		c0.5-0.8-27.5-17.2-27.5-17.2c0.6-1,34,16.1,34,16.1c0-0.1-29.1-16.9-28.5-17.8c0.6-1,33.4,16.3,33.4,16.3
		c0.6-1-28.7-17.9-28.7-17.9c0.2-0.3,33.9,16.6,33.9,16.6l-29.5-18.4c0,0,34.6,18.5,34.9,18c0,0-32.5-19.2-32-20
		c0.1-0.1,37.4,19,37.6,18.7l-32-20c0.4-0.7,34.6,18.7,34.7,18.4c0.4-0.6-31.8-19.5-31.7-19.8c0.4-0.7,37.7,19.4,37.7,19.4
		l-32.1-20.1c0,0,35.3,19.2,35.8,18.4c0.6-1-31.8-19.4-31.6-19.7c0,0,35.7,18.9,35.9,18.6l-30.9-19.3c0.6-1,36.1,19.5,36.6,18.7
		L132,287.6c0.7-1.2,36.2,18.8,36.4,18.5c0,0-32.4-20-32.3-20.2c0,0,37.4,19.2,37.6,19L141.9,285c0,0,36.3,19.3,36.5,19l-31.8-19.9
		c0,0,35.9,19,36.2,18.5L151.4,283c0.3-0.5,36.5,19.3,36.5,19.2c0.6-0.9-33.6-21-33.6-21l36.9,19.4c0,0-32.7-19-32.1-20
		c0.5-0.9,38.4,19.7,38.7,19.2l-32.5-20.3c0,0,36.8,18.7,37.1,18.2c0.2-0.4-31.4-19.6-31.4-19.6l35.8,17.9c0,0-29.3-18.1-29.2-18.2
		c0.6-0.9,34.9,16.6,34.9,16.6c0.3-0.5-29.1-17.1-28.6-17.9c0,0,30,15.7,30.3,15.3c0,0-25.6-15.8-25.5-15.9c0,0,28,13.9,28.3,13.5
		l-22.2-13.9c0,0,24,12.1,24.2,11.8l-18.3-11.4l19.4,8.5c0,0-13-7.9-12.9-8.1"/>
	<path fill="none" stroke="#333333" stroke-width="6.72" d="M189.5,279.2c-15.2-32.3-45.9-52.4-77.3-49.6
		c-3.1,0.3-10.1-2.9-13.2-2.2c-4.6,1.1-5.1,6.4-9.2,8.4c-50.1,8.1-54,58.9-51.1,94.9"/>
	<g>
		<path fill="none" d="M199.6,300.5c7.3-2.9,30.5-11.1,15.3-20.8c-12-7.8-43.8-0.5-56.8,2.2c-25.1,4.9-49.9,11.9-73.9,20.7
			c-7.3,2.9-56.3,27.9-43.4,33.5c1.3,0.6,7.2-0.9,8.4-1.1L199.6,300.5z"/>
		<path fill="#333333" d="M202.2,303.5c7.4-2.9,15.7-5.9,21.2-11.9c6.9-7.6-0.8-14.4-8.1-17.3c-9.5-3.7-21.3-2.2-31.1-1
			c-10.3,1.3-20.4,3.6-30.6,5.6c-15,3-29.9,6.9-44.6,11.3c-10.4,3.2-21.3,6.2-31.2,10.9c-13.7,6.5-27.8,14-39.3,23.8
			c-3.4,2.9-8.3,7.8-5.3,12.5c3.3,5.1,12.6,2.2,17.1,1.2l21.2-4.9l90.4-20.8l38.7-8.9c2.1-0.5,6.1-2.6,5.3-5.3
			c-0.8-2.9-5.2-2.5-7.3-2L55.9,329.6l-7.4,1.7c-1.3,0.3-2.6,0.6-3.9,0.8c-2.8,0.5,1.4,1,0.2,0.3c0.7,0.4-0.2-0.5,0.2,0.3
			c-0.1-0.3-0.2-0.3,0.3-1.2c2.6-4.5,10.1-8.6,14.8-11.5c6.4-4,13.1-7.6,19.9-11c8.2-4.1,16.9-6.8,25.7-9.6
			c14.7-4.7,29.6-8.6,44.6-11.9c10.3-2.2,20.7-4.4,31.1-5.9c8.7-1.2,20.5-3.2,28.6,1.6c10.9,6.5-8.1,12.4-12.9,14.4
			c-1.9,0.8-5.1,3.4-3.2,5.7C195.7,305.4,199.8,304.5,202.2,303.5z"/>
	</g>
</g>
<g>
	<path fill="none" d="M963.5,397.6c-22.4,13.7-84.2,29.8-104.1,77.1c-5.1,12.2,19.3,133.7,5.7,136.1"/>
	<path fill="#333333" d="M960.3,395.8c-13.8,8.3-29.5,13.7-43.9,21c-18.3,9.4-36.1,20.9-49.2,37.1c-5.1,6.3-11.4,14.5-13.1,22.6
		c-0.9,4-0.3,8.4-0.1,12.4c0.9,14.8,3,29.6,4.8,44.4c2,16.5,4.1,33.1,5.1,49.7c0.5,6.1,0.5,12.2,0.2,18.3c-0.1,2.1-0.5,4.2-1,6.2
		c-0.1,0.5-0.3,0.9-0.6,1.4c-0.5,0.8,0.6-0.6,0,0.1c0.2-0.2,2.5-1.2,1.9-1c-6.2,1.4-4.5,7.3,1.6,5.9c9.6-2.2,8.5-15.5,8.4-22.9
		c-0.2-15.7-2.1-31.3-4-46.8c-1.9-16.1-4.1-32.2-5.6-48.3c-0.6-5.3-0.9-10.7-1-16.1c0-1.5,0.1-3,0.4-4.5c0-0.2,0.3-1,0-0.1
		c0.5-1.2,1.1-2.4,1.6-3.6c1.3-2.7,2.8-5.3,4.4-7.9c11.5-18.6,30.5-31.3,49.4-41.2c15.5-8.1,32.2-13.8,47.2-22.8
		c1.6-1,2.8-3.3,0.7-4.5C965.2,393.7,962.3,394.5,960.3,395.8L960.3,395.8L960.3,395.8z"/>
</g>
<g>
	<path fill="#FFFFFF" d="M311.8,537.6c3.2-15.2,31.2-21.6,35.2-4c4,16.8-27.2,17.6-32.8,6.4"/>
	<g>
		<path fill="none" d="M311.8,537.6c3.2-15.2,31.2-21.6,35.2-4c4,16.8-27.2,17.6-32.8,6.4"/>
		<path fill="#333333" d="M317.6,537c3.1-12.5,21.2-14.7,24-0.9c2.4,11.7-17.8,9.4-21.6,2.4c-2.2-4-13.3-0.3-11.4,3.1
			c4.6,8.3,15.5,9.7,24.1,9.2s21.1-5.6,20.5-16c-1.4-25.2-42.4-15.4-47,3.6C305,542.7,316.6,541,317.6,537L317.6,537L317.6,537z"/>
	</g>
</g>
<g>
	<path fill="#FFFFFF" stroke="#333333" stroke-width="10.268" d="M579.5,566.5c-6.1-1-16-2.6-22-3.6l-273.6-44.4
		c-6.1-1-7.8-5.7-4-10.4l175.2-214.8c3.9-4.8,10.2-12.5,14.1-17.3L644.5,61.3c3.9-4.8,8.8-4,11,1.8l98.4,259.1
		c2.2,5.7,5.7,15.1,7.9,20.9l98.4,259.1c2.2,5.7-1,9.6-7.1,8.6L579.5,566.5z"/>
	<path fill="none" stroke="#FF0000" stroke-width="1.954" stroke-linecap="round" stroke-linejoin="round" d="M314,506.4
		c-1.1-0.6-2.2-1.3-3.2-2c0,0,12.5,3.9,12.7,3.7l-12.7-7.9l22.1,9.7c0.3-0.5-20.4-11.8-20-12.5c0,0,28.8,14.2,28.9,14
		c0.4-0.6-27.4-17.1-27.4-17.1c0.5-0.8,35.6,18.1,35.6,18.1s-33.3-20.2-33-20.6l43.2,22.7c0,0-41.3-24.2-40.5-25.3
		c0,0,46.1,27,46.7,26.1c0.7-1.1-46.1-28.8-46.1-28.8s55.7,30.8,56.1,30.1l-53.1-33.2l62.6,35.2c0,0-60.5-35.6-59.5-37.2
		c0.8-1.3,66.4,37.6,66.4,37.6c0.1-0.1-64.8-40.4-64.7-40.4c0.5-0.9,76,42.7,76,42.7c0.6-0.9-74.5-43.6-73.2-45.7
		c0.8-1.3,79.4,46.4,79.4,46.4c1.7-2.7-78.5-49-78.5-49l84.7,49.9l-82.5-51.6c1.3-2.1,89.9,52.8,89.9,52.8l-88.2-55.1
		c0.8-1.4,96.1,59.7,97.7,57.1c0,0-97.3-58.2-96.1-60c0,0,101.2,63.7,103,60.9c0.6-1-102.7-60.1-100.9-63
		c1.9-3,108.2,65.7,109.1,64.3l-106.8-66.8c0,0,113.5,72.2,115.9,68.4c0,0-114.5-68.2-113-70.6l120.8,71.8l-118.8-74.2l126.3,75.3
		c0,0-125.2-78.2-125.2-78.2c1.2-1.9,136.1,80.2,136.1,80.2c1.8-2.9-133.2-83.3-133.2-83.3s139.5,86.2,140.7,84.3
		c2.6-4.1-140.9-85.1-139.6-87.2l146.9,88.4c0.8-1.2-145.4-88.1-144.1-90.1c1.9-3,155.2,92.3,155.2,92.3l-153.3-95.8l162.1,96.9
		l-159-99.4c1-1.6,164.7,101.9,165.7,100.3l-164.8-103c0,0,172.1,107.7,173.9,104.9c2-3.1-172.6-104.9-171.3-107
		c3.9-6.3,181.5,108.7,181.5,108.7c0.2-0.4-179.1-111.9-179.1-111.9s185.8,117,188.1,113.3L368.5,430.2l193.6,116.6
		c1.3-2-191.5-119.7-191.5-119.7L572,548.2c0.8-1.2-202.6-121-200.1-125l207.9,126.4L374,421c0,0,213,135.4,216,130.5
		c0.1-0.2-213-131.9-212.4-132.7c1.3-2,219.2,140.4,222.9,134.4c2.2-3.5-222.8-136.4-221.6-138.5c0.8-1.3,228.5,139.9,228.7,139.7
		c4.7-7.6-230.1-136.8-226.9-141.8c4.4-7,232.3,150,236.6,143c0.7-1.2-232.7-145.4-232.7-145.4c0.4-0.6,242.4,146.8,242.4,146.8
		c0.5-0.9-245.4-141.6-240.1-150c0.2-0.3,247.5,151.6,247.5,151.6c4.7-7.5-249.7-149.8-246.9-154.3c3.6-5.7,256.6,157.4,257.3,156.1
		l-254.4-159l262.5,160L392.1,398.6c0,0,263.4,171.8,268.3,163.9c0.9-1.4-266.1-166.3-266.1-166.3S669,569.4,671.8,564.9
		c3.7-6-274.9-171.8-274.9-171.8c2.8-4.6,282.6,176.5,284.8,173.1c1.2-1.9-285.4-171.2-282.2-176.3c0.8-1.2,285.9,181.6,288.7,177.2
		c0.4-0.6-292.9-169.9-287-179.3c0,0,294.8,184.7,297.2,180.9c4.1-6.6-294.5-184-294.5-184c1-1.7,296,194.9,301.9,185.4
		c5.9-9.5-298.9-186.8-298.9-186.8l307.5,188.2c3.2-5.1-311-184.4-306.5-191.6c0,0,311.2,202.3,316.7,193.6L410.6,377.2
		c3.3-5.3,321.7,197,321.7,197c3.1-4.9-320.7-196.2-318.9-199.2c2.9-4.6,328,201.1,328,201.1c3.8-6.1-333.7-193-326.8-204.2
		c1.1-1.8,335.3,205.4,335.5,205.2L417.5,369.2c0,0,338,219.2,343.6,210.3c2.1-3.3-340.7-212.9-340.7-212.9s344.1,215.7,345.8,213.1
		c0.8-1.2-345.3-215.8-345.3-215.8c0.6-1,350.9,226.1,356.1,217.7c0,0-355.9-216.4-353.2-220.7l362.2,222.6L425.4,358.2
		c4.8-7.6,370.6,226.6,370.6,226.6c1.3-2.2-366.9-229.3-366.9-229.3c7.2-11.6,376.3,232.3,377.3,230.8c7.5-11.9-375-234.4-375-234.4
		c7.4-11.9,385,236.5,385,236.5S426,361,433.4,349.2c4.3-6.8,390.9,240.3,390.9,240.3L435.9,346.8c0,0,388.9,250.2,394.2,241.7
		c0,0-395.9-240-392.6-245.3c0,0,388.9,251.3,394.1,243c0,0-395.2-239.3-391.8-244.8c5.6-9,393.3,242.7,393.3,242.7
		c0.6-0.9-397.8-235-391.7-244.7c4.4-7,390.6,240.8,390.6,240.8c1.2-1.9-394-234.8-388.9-243l386.6,238.1
		c5.9-9.5-392.5-227.6-384.5-240.3l383,235.4c0-0.1-380.9-238-380.9-238l377.6,232.5c2.2-3.5-375.4-234.6-375.4-234.6
		c7.2-11.5,372.1,232.9,373.8,230.2c3.3-5.3-372.1-231.4-371.6-232.2c0,0,365.2,236.1,370.6,227.5c3.1-4.9-374.3-223.5-369.6-231
		c0,0,364.2,226.5,365.9,223.8c0,0-366.7-219.1-362.2-226.3c0,0,358.1,229.3,361.9,223.2c0,0-362.6-221.8-360.4-225.2l358.7,220.5
		c2-3.2-356.4-222.7-356.4-222.7s346,227.4,353.2,215.9c4.1-6.5-352.4-215.9-350.5-219c3.6-5.7,347.3,214.1,348.1,212.9L465.2,311.5
		l344.8,211.7L467.6,309.2l340.7,209.4C815.5,507.1,469.6,307,469.6,307c4-6.4,336.1,206.7,336.1,206.7
		c0-0.1-334.8-209.2-334.8-209.2c5.7-9.2,329.1,210.3,332.9,204.2c0,0-337.8-197.9-331.9-207.4c6.3-10.1,330,202.3,330,202.3
		L475.3,299.4c4.8-7.6,324.1,198.7,324.1,198.7c2.6-4.2-321.7-201-321.7-201l320.7,196c0.8-1.3-320.1-197.1-318.8-199.2
		c2.8-4.5,316.3,193.3,316.3,193.3c4.4-7-314.2-196.3-314.2-196.3c3.7-6,305.5,202.4,312.2,191.7c3.4-5.5-310.7-194.2-310.7-194.2
		c1.7-2.7,307.9,187.7,307.9,187.7L486.6,285.7c5.9-9.4,302,184.2,302,184.2S483.3,291.5,488.9,282.6
		c4.1-6.5,298.6,181.6,298.6,181.6c2.2-3.6-295.9-184.9-295.9-184.9c5.5-8.9,292.9,178.5,292.9,178.5l-291.2-182L781.6,451
		c3-4.8-287.9-173-284.8-178c3.9-6.3,283.1,172.3,283.1,172.3c3-4.8-281-175.6-281-175.6c5.2-8.3,278.3,169.4,278.3,169.4
		c4.1-6.5-280.9-165.1-276.2-172.6c0,0,272.3,170.1,274.4,166.9C778.9,428,504,263.9,504,263.9c1.6-2.6,268.8,164.4,268.8,164.4
		L505.5,261.2c2.7-4.4,266.1,163,266.1,163S507.8,259.7,507.9,259.4l261.9,159.9c3.5-5.5-261.3-162.5-260.9-163L768,414.5
		c2-3.2-256.5-160.2-256.5-160.2C512,253.6,765.3,409,765.3,409l-251-156.8c4.4-7.1,249.7,152.3,249.7,152.3
		c4-6.4-251.7-148.9-247.9-154.9c0,0,246.6,151.3,246.7,151.1c3.7-5.8-248.9-148.5-245.7-153.5c0,0,241,154.8,244.3,149.5
		L519.4,245.4c3.4-5.4,239.2,145.7,239.2,145.7c0.6-0.9-237.9-146.9-237.1-148.2c4.7-7.4,235,143.2,235,143.2L523.4,240.4
		c3.6-5.8,231.8,142.5,232.6,141.3c0.7-1.1-234.9-138.2-231-144.4c2.8-4.5,225.2,141,227.5,137.5c4.3-6.8-228.2-133-223.9-139.9
		c1.9-3,222.4,134.8,222.4,134.8l-221-138.1C531.5,229,748.5,365,748.5,365l-216-135l213.8,128.8c0,0-216.3-125.7-212-132.5
		c0,0,208.7,131.1,210.8,127.7c0,0-209.8-129.2-209-130.6l207,126.3c0,0-208.7-122.5-205.1-128.2c3.5-5.6,201.4,125.6,202.9,123.1
		L539.7,218.8c0.7-1.2,199.9,120.8,199.9,120.8L541.8,216L737,334.2c0,0-194.4-117.7-192.8-120.4c0,0,189.5,116.3,190.3,115
		c0.9-1.5-188.6-117.8-188.6-117.8c0.5-0.7,182.8,118.6,186.8,112.2c3-4.8-183.9-113.3-183.2-114.5c2.7-4.3,181.8,108.6,181.8,108.6
		c0.6-0.9-180.1-112.5-180.1-112.5s174.1,113.1,177.9,107c0,0-178.1-103.2-174.4-109c0,0,169.6,103.7,170.6,102
		c1.9-3.1-168.4-105.2-168.4-105.2l166.7,101c2.6-4.2-165.1-103.2-165.1-103.2c2.4-3.8,163.5,98.8,163.5,98.8
		c0.2-0.3-162.3-101.4-162.3-101.4c1.3-2.1,160.3,96.3,160.3,96.3c2.2-3.6-157.2-98.3-157.2-98.3l156.4,93.5
		c2.3-3.6-156.7-92.2-154.1-96.3l152.2,91.5c0,0-153.6-90.8-151.3-94.5c1.5-2.3,146.7,95.8,149.9,90.6c0,0-149.6-87.8-147-91.9
		c3.1-4.9,144.2,85.2,144.2,85.2c2.1-3.3-143-86.1-141.5-88.4c0.3-0.4,138.4,87.6,140.3,84.6c2.7-4.3-139.4-87.1-139.4-87.1
		s136.6,82.8,137,82.1c0,0-138.2-80.9-135.8-84.8c0.2-0.3,130.4,83.8,133.2,79.4c0,0-132.5-76.6-129.7-81.1
		c0,0,125.9,78.7,127.9,75.7L579,172.4l125.2,74.7c2.5-4-125.5-74-123.5-77.2c1.5-2.3,121.3,72.1,121.3,72.1l-118.9-74.3
		c1.8-2.9,115.6,67.4,115.6,67.4s-115.4-67.4-113.3-70.8c0,0,111.5,68.6,112.6,66.8c1.3-2.2-112.4-64.9-110-68.7
		c0,0,107.1,66.1,108.2,64.4c0.8-1.3-107.3-67.1-107.3-67.1c1.5-2.4,105,61.2,105,61.2c0.3-0.5-102.6-64.1-102.6-64.1
		c0.7-1.1,100.4,59.4,100.8,58.6c1.5-2.4-97.6-61-97.6-61l95.8,56c1.2-1.9-96.2-56.2-94.5-59c0,0,90.4,53.7,91.4,52.1
		c0,0-89.6-52.4-88-55c0.6-1,86.5,50.9,86.5,50.9s-86.6-50.9-85.1-53.2l82.2,47.3l-80.4-50.3l78,43.7c0,0-75.5-44.9-74.5-46.6
		c0.3-0.5,72.3,41.7,72.5,41.3c0,0-72.2-41.8-70.7-44.2c0.9-1.5,69.9,40.2,69.9,40.2c0.8-1.3-69.3-40.5-68-42.5
		c0.5-0.8,64.9,36.5,64.9,36.5c1-1.6-62.2-38.7-62.1-38.8c0.4-0.7,59,32.9,59.5,32.2c0.7-1.2-58.2-33.6-56.9-35.6
		c0,0,54.6,31.7,55.1,30.8c1-1.6-53.7-31.8-52.9-33.1c0.2-0.2,52,29.3,52,29.3l-50.5-31.5c0,0,48.6,28.6,49.2,27.6l-47.7-29.8
		c0,0,44.8,24.9,45,24.5c0.8-1.3-45-26.4-44.2-27.6l43.1,22.5c0,0-40.3-24.5-40-25c0,0,36,19.3,36.7,18.2L627,114
		c0,0,32.2,16.5,32.2,16.5l-31-19.4c0.1-0.1,28.2,14.5,28.5,14.1c0.1-0.1-26.2-15.2-25.6-16c0.1-0.1,24,11.7,24.5,10.9
		c0.5-0.7-23.1-14.4-23.1-14.4c0.4-0.6,21,10,21.4,9.5l-18.2-11.3l16,5.5l-14.1-8.8c0,0,11.2,3.7,11.4,3.4c0,0-9-5.6-9-5.6
		c0.1-0.1,7.1,0.7,7.1,0.7c0-0.1-3.2-2-3.2-2"/>
	<g>
		<polygon fill="#FFFFFF" points="578.9,505.5 388.6,474.7 509.7,330.2 630.8,185.8 700,361.1 769.2,536.4 		"/>
		<g>
			<polygon fill="none" points="578.9,505.5 388.6,474.7 509.7,330.2 630.8,185.8 700,361.1 769.2,536.4 			"/>
			<g>
				<polygon fill="#FFFFFF" points="578.3,509.4 578.8,509.7 580.3,509.3 				"/>
				<path fill="#FFFFFF" d="M587.6,509.5c-0.2-0.2-0.1-0.3-0.3-0.5l-5.6,0.9C583.9,511.3,586.1,508.6,587.6,509.5z"/>
				<path fill="#FFFFFF" d="M589.1,509.9c1.1,0.5,2.4,0.5,3.5-0.1C591.8,510.3,588.8,509,589.1,509.9z"/>
				<path fill="#FFFFFF" d="M770.7,533.7l0.3,0.6C770.9,534,770.8,533.8,770.7,533.7z"/>
				<path fill="#FFFFFF" d="M750.5,490l-0.8-0.2c4.4,7.9,7,17.7,10.9,26.4l-0.5-0.5c2.1,5.6,4.3,11.1,6.5,16.5l1.7,4
					c0.4-0.3-0.6,1.3,1-0.5l-0.5-0.1l-1.1-0.2l-2.1-0.3l-8.6-1.2c-11.4-1.5-22.9-3-34.7-4.7c0.4,0,0.5-0.2,0.9-0.2
					c-1.3,0.1-2.5,0.1-3.8,0c-0.3-0.2,0.4-0.2,0.8-0.2c-4.8-1.9-14.7-1.7-17.7-3c-1.4-0.1-2.1,0.2-1.4,0.7
					c-18.5-2.7-38.2-5.7-57.1-7.9c-0.9-0.3-1-0.6-0.7-0.9c-16.3-0.9-33-4.3-49.4-7.2c-0.7,0.4,1.6,0.8-0.1,1
					c5.2,1.4,9.8,0.5,14.5,2.1l-0.7,0.3c3.4,0.8,0.9-1,4.4,0.2c1.4,0.6-0.4,0.5,0.2,0.6c7.4,1,15.1,2.7,22.2,2.7
					c1.6,1.2,7.9,1.3,10.5,2.7c2-0.1,3.9,0.3,4.7-0.2c25.8,4.7,52.4,8.1,79,12.5c6.4,0.1,13.2,1.3,20.2,2.7
					c3.5,0.7,7.1,1.4,10.8,2.1l5.5,1l2.8,0.4l0.7,0.1l0,0h0h0c1.1-1.3-2.4,3,2.4-3l0-0.1l-0.1-0.2L771,535l-0.6-1.3
					c0-0.1,0.1-0.1,0.2-0.1c-2.6-5.3-5-10.8-6.9-16.4l-2.5-4.3c-11.3-33.1-25.5-65.9-38-99.2c-14.4-37.7-26.1-71.1-42.9-106.7
					c0.2,0,0.2-0.4,0.6,0.6c-4.5-10.4-7.7-20.3-12-30.1l0.2,0c-11.2-24.1-20.1-51.4-31-74.5c-1.4-3.6-2.8-7.3-4.3-11l-2.2-5.6
					l-0.3-0.7c-2.4-0.4-0.9,0.2-1.6,0.3l-1,1.2l-2,2.3c-5.3,6.3-10.6,12.7-16,19.1c-10.7,12.9-21.5,26.1-31.9,38.8l-0.2-0.3
					c-16.3,20.7-34.2,38.9-50.6,59.5c-18,20.2-34.1,44-52.5,64.1c-12.2,11.8-23.5,31.2-35.1,42.2c-11.3,11.5-22,23.6-32.1,36.2
					c-6.9,11-31.6,30.6-3.9,27.4c29.5,5.8,59.5,8,87.8,14.7c13.8,0.9,28.4,6.3,43.5,8.3l-0.5-0.5c5.2,2.2,12.4,0.1,15.5,2.6l-0.6,0
					c2.7,1.5,7.1-1.3,8.6,0.2l0.5-0.4c3.5,0.4,0.3,0.6,3,1.3c1,0.1,0.5-0.9,2.6-0.2c0.1,2.2,8.6,0.9,8.5,3.3
					c-1.9-0.3,2.8,1.4-1.5,1.2c1.2,0.4,7,1.3,6.7,0.2c0.7-1,3.1-1.5-0.3-2.9l-0.8,0.7c-1.1-1-0.8-0.5-1.2-1.2
					c-4.6-0.9-5.1-2.1-8.3-3.1c0,0,0.1,0,0,0.1c-2.4,0.6-5.5-0.5-7.2-0.9l-0.7-0.5c-0.9-1.1-5.6,0.9-3.9-0.4
					c-9.5-1.1-20.3-2.9-30.8-4.6c-1.6,0.3-8-1.4-5.9,0.1c-2.4-1.7-10.2-3.3-13.1-3.7c0.2-0.2,0.5-0.2,0.7-0.1
					c-5.4-2.6-6.9,0.5-11.9-2.4c-1.1,1.3-9.5-2-12.8-0.8c-0.6-0.4-0.8-0.7-0.5-1c-9.5-1.6-19.9-3.8-28-5.2
					c-7.1,0.1-16.6-3.3-22.8-2.5c-4.8-1.2-12.7-3.2-19.6-3.6l0.7-0.1c-7.7-1.1-17.4-2.6-22.9-2.4l-0.2-0.2l-0.1-0.1l0,0l0,0l0,0l0,0
					c3,8.2,0.8,2.3,1.5,4.1l0,0l0.1,0l0.5-0.2l0.9-0.5c0.6-0.4,1.2-0.9,1.8-1.4c1.1-1.1,2.3-2.3,3.6-3.5c2.8-4.5,9.7-12.4,14.3-19
					c1.4-0.4,4-5.3,5.1-4.8c12.7-18.5,31-39.2,47.6-56.4l-0.2,0.3c1.5-2.8,2.8-6.4,4.2-9.3c0.3-0.2,0.4,0,0,0.5
					c2.6-3.5,6.1-5.9,8.7-9.4c0.1,0.1,0.1,0.1-0.2,0.8c2.2-3.4,6.1-5.9,8.5-10.1l0.4,0l1.7-2.6c0.2,0.3,0.6,0.8-0.6,1.9
					c24.3-28.4,47.6-59.2,72.5-88.5l-0.6,1.3l4.3-6.1c0.1,0.3,0,0.6-0.2,0.8c6.6-6.9,12.1-15.1,18.1-22.1c0.1,0.2-0.5,1.5,0.5,0.6
					c3.6-5.9,8.1-7.6,8.7-11.6c0.3-0.2,0.8,0,0.5,0.6c11.7-15,24.3-30,36.9-44.5c1.1-1.7,2.3-3.4,3.5-5l0.9-1.2l0.1-0.1
					c-1.1-0.2,2.6,0.4-2.5-0.4l0,0l0,0l0,0l0.1,0.2l0.2,0.4l0.3,0.7l1.3,2.9c1.7,3.8,3.2,7.8,4.8,11.8c3.1,7.9,6.2,16,10,23.4
					l-0.4,0.1c9.1,19.5,16.2,41.2,24.6,61.8c3.2,8.7,6,14.3,9.4,22.9l-0.4,0.4c7.4,13.9,10.6,31.2,18.4,45.6l-1-0.8
					c1.9,2,3.3,9.3,4.5,7.8l0.6,2.9c6.2,9.5,6.4,19.1,12.8,31.2l-0.7-0.7c1.7,3.1,3,6.3,4,9.7c-0.3-0.3-0.5-0.6-0.7-0.9
					c2.7,11.1,8.9,22.2,13.3,33.3l-1.2-1c2.9,5,6.1,15.2,9.2,22.1l-0.5-0.3l1.9,3.4l-0.6,0.4C742.9,472.7,746.8,481.1,750.5,490z"/>
				<path fill="#FFFFFF" d="M720.3,528.8L720.3,528.8C720.7,528.9,720.6,528.8,720.3,528.8z"/>
				<path fill="#FFFFFF" d="M566.9,500.2c0.4,0.1,0.8,0.2,1.2,0.3C567.7,500.4,567.3,500.3,566.9,500.2z"/>
			</g>
		</g>
	</g>
	<g>
		<g>
			<path fill="none" stroke="#000000" stroke-width="2.158" stroke-linecap="round" stroke-linejoin="round" d="M613.1,323.4
				c0,0-5.2-3.3-5.2-3.3c0.1-0.2,14.1,4.3,14.4,3.9l-19.4-12.1c0,0,23.8,10.6,24.3,9.9c0.1-0.2-24.4-15.2-24.4-15.2l28.2,12.3
				L604,302.1c0.5-0.8,29.4,13.8,29.4,13.8s-27.7-16.9-27.6-17.2c0,0,27.9,14.2,28.2,13.7l-24.3-15.2l24.9,10.1
				c0,0-20.5-12.4-20.3-12.7c0.3-0.5,18.5,7.9,18.8,7.5c0,0-13.8-8.1-13.6-8.5"/>
			<path fill="none" stroke="#000000" stroke-width="2.158" stroke-linecap="round" stroke-linejoin="round" d="M559.1,476.4
				l-6.5-4.1c0,0,11.9,2.2,12,2c0.2-0.3-14.8-8.8-14.6-9.1c0,0,13.7,3.4,13.9,3.2c0,0-12.4-7.4-12.2-7.6c0.1-0.2,13.8,5.2,13.8,5.2
				c0.2-0.3-15.3-9.1-15.1-9.4c0.3-0.4,14.3,5.1,14.3,5.1c0.1-0.1-12.9-8-12.9-8s14.4,4.2,14.6,4l-14.1-8.8
				c0.2-0.4,14.8,5.8,14.8,5.8c0.1-0.2-15.8-9.8-15.8-9.8c0.1-0.2,16.3,5.4,16.3,5.4c0.3-0.5-14.8-9.2-14.8-9.2
				c0.2-0.4,15.1,5.4,15.4,5c0,0-15.5-9.3-15.3-9.6c0,0,14.5,3.9,14.6,3.8c0.1-0.2-14.7-9.2-14.7-9.2s15.9,5.9,16,5.8
				c0,0-16.1-9.5-15.9-9.9c0.2-0.3,15.5,5.8,15.5,5.8c0.3-0.4-14.8-9.3-14.8-9.3l15.4,5.8l-18.4-11.5c0,0,20.4,7.6,20.4,7.6
				c0.1-0.1-24-14.9-23.9-15c0,0,24,10.7,24.5,10c0,0-30.3-17.6-29.7-18.6c0.1-0.1,26.9,14.1,27.3,13.4l-30-18.7
				c0.6-0.9,27.8,12.5,27.8,12.5c0.5-0.7-42.6-25.5-42.1-26.3c0.3-0.4,37.4,20.3,37.8,19.7c0.1-0.2-38-22.5-37.4-23.4
				c0.4-0.7,35.8,17.5,35.8,17.5c0.6-0.9-33.4-20.7-33.4-20.8l29.9,15.1L531,374"/>
			<path fill="none" stroke="#000000" stroke-width="2.158" stroke-linecap="round" stroke-linejoin="round" d="M482.6,462.4
				c0,0-1-0.6-1-0.6c0-0.1,3.5-2.7,3.6-2.8l-7.8-4.9c0,0,10.4,1.6,10.6,1.3c0.1-0.1-10.5-6.6-10.5-6.6l13.7,3.3l-12.7-7.9
				c0.2-0.4,15.6,5.2,15.6,5.2s-13.8-8.4-13.7-8.5c0,0,15.1,5.9,15.3,5.7l-11.9-7.5l15.1,4c0,0-12.6-7.7-12.5-7.8
				c0.2-0.4,14.7,5.3,14.9,5c0,0-13.2-7.8-13-8.1c0.1-0.2,14.7,5.7,15,5.2l-13.9-8.7c0.1-0.1,14.5,5.4,14.7,5
				c0.1-0.2-11.8-7.3-11.8-7.4l14.3,4.6c0.3-0.5-13.1-8-13-8.1l16.4,6.2c0,0-13.6-8.3-13.5-8.5c0.1-0.2,15.5,4.4,15.5,4.4
				s-12.1-7.1-11.9-7.5l13.3,4.7c0,0-11.7-7-11.6-7.2c0,0,15.4,4.9,15.7,4.5c0.1-0.1-13.4-7.9-13.2-8.2c0,0,15.2,4.5,15.2,4.5
				c0.1-0.2-14-8.2-13.7-8.6c0,0,16.7,6.6,16.7,6.6l-14.3-8.9c0.3-0.4,15.5,4.5,15.6,4.3c0,0-13.9-8.5-13.8-8.6l17.1,5.3
				c0,0-13.1-8-13-8.1l16.3,6.6c0-0.1-15.8-9.3-15.6-9.7c0.2-0.3,16.7,5.8,16.7,5.7c0.3-0.5-14.7-8.9-14.6-9.1
				c0.1-0.1,17,6.2,17,6.2s-13.7-8.4-13.7-8.5c0.2-0.3,16.3,6.4,16.6,6c0.3-0.5-14-8.5-13.9-8.7"/>
		</g>
		<g>
			<path fill="none" stroke="#000000" stroke-width="2.158" stroke-linecap="round" stroke-linejoin="round" d="M613.1,323.4
				c0,0-5.2-3.3-5.2-3.3c0.1-0.2,14.1,4.3,14.4,3.9l-19.4-12.1c0,0,23.8,10.6,24.3,9.9c0.1-0.2-24.4-15.2-24.4-15.2l28.2,12.3
				L604,302.1c0.5-0.8,29.4,13.8,29.4,13.8s-27.7-16.9-27.6-17.2c0,0,27.9,14.2,28.2,13.7l-24.3-15.2l24.9,10.1
				c0,0-20.5-12.4-20.3-12.7c0.3-0.5,18.5,7.9,18.8,7.5c0,0-13.8-8.1-13.6-8.5"/>
			<path fill="none" stroke="#000000" stroke-width="2.158" stroke-linecap="round" stroke-linejoin="round" d="M559.1,476.4
				l-6.5-4.1c0,0,11.9,2.2,12,2c0.2-0.3-14.8-8.8-14.6-9.1c0,0,13.7,3.4,13.9,3.2c0,0-12.4-7.4-12.2-7.6c0.1-0.2,13.8,5.2,13.8,5.2
				c0.2-0.3-15.3-9.1-15.1-9.4c0.3-0.4,14.3,5.1,14.3,5.1c0.1-0.1-12.9-8-12.9-8s14.4,4.2,14.6,4l-14.1-8.8
				c0.2-0.4,14.8,5.8,14.8,5.8c0.1-0.2-15.8-9.8-15.8-9.8c0.1-0.2,16.3,5.4,16.3,5.4c0.3-0.5-14.8-9.2-14.8-9.2
				c0.2-0.4,15.1,5.4,15.4,5c0,0-15.5-9.3-15.3-9.6c0,0,14.5,3.9,14.6,3.8c0.1-0.2-14.7-9.2-14.7-9.2s15.9,5.9,16,5.8
				c0,0-16.1-9.5-15.9-9.9c0.2-0.3,15.5,5.8,15.5,5.8c0.3-0.4-14.8-9.3-14.8-9.3l15.4,5.8l-18.4-11.5c0,0,20.4,7.6,20.4,7.6
				c0.1-0.1-24-14.9-23.9-15c0,0,24,10.7,24.5,10c0,0-30.3-17.6-29.7-18.6c0.1-0.1,26.9,14.1,27.3,13.4l-30-18.7
				c0.6-0.9,27.8,12.5,27.8,12.5c0.5-0.7-42.6-25.5-42.1-26.3c0.3-0.4,37.4,20.3,37.8,19.7c0.1-0.2-38-22.5-37.4-23.4
				c0.4-0.7,35.8,17.5,35.8,17.5c0.6-0.9-33.4-20.7-33.4-20.8l29.9,15.1L531,374"/>
			<path fill="none" stroke="#000000" stroke-width="2.158" stroke-linecap="round" stroke-linejoin="round" d="M482.6,462.4
				c0,0-1-0.6-1-0.6c0-0.1,3.5-2.7,3.6-2.8l-7.8-4.9c0,0,10.4,1.6,10.6,1.3c0.1-0.1-10.5-6.6-10.5-6.6l13.7,3.3l-12.7-7.9
				c0.2-0.4,15.6,5.2,15.6,5.2s-13.8-8.4-13.7-8.5c0,0,15.1,5.9,15.3,5.7l-11.9-7.5l15.1,4c0,0-12.6-7.7-12.5-7.8
				c0.2-0.4,14.7,5.3,14.9,5c0,0-13.2-7.8-13-8.1c0.1-0.2,14.7,5.7,15,5.2l-13.9-8.7c0.1-0.1,14.5,5.4,14.7,5
				c0.1-0.2-11.8-7.3-11.8-7.4l14.3,4.6c0.3-0.5-13.1-8-13-8.1l16.4,6.2c0,0-13.6-8.3-13.5-8.5c0.1-0.2,15.5,4.4,15.5,4.4
				s-12.1-7.1-11.9-7.5l13.3,4.7c0,0-11.7-7-11.6-7.2c0,0,15.4,4.9,15.7,4.5c0.1-0.1-13.4-7.9-13.2-8.2c0,0,15.2,4.5,15.2,4.5
				c0.1-0.2-14-8.2-13.7-8.6c0,0,16.7,6.6,16.7,6.6l-14.3-8.9c0.3-0.4,15.5,4.5,15.6,4.3c0,0-13.9-8.5-13.8-8.6l17.1,5.3
				c0,0-13.1-8-13-8.1l16.3,6.6c0-0.1-15.8-9.3-15.6-9.7c0.2-0.3,16.7,5.8,16.7,5.7c0.3-0.5-14.7-8.9-14.6-9.1
				c0.1-0.1,17,6.2,17,6.2s-13.7-8.4-13.7-8.5c0.2-0.3,16.3,6.4,16.6,6c0.3-0.5-14-8.5-13.9-8.7"/>
		</g>
		<g>
			<g>
				<path fill="none" stroke="#000000" stroke-width="2.158" stroke-linecap="round" stroke-linejoin="round" d="M607.4,319.3
					l-2.6-1.6c0,0-0.8-5.9-0.8-6c0,0-1.8-1.1-1.8-1.1c0,0,1.2-4.6,1.2-4.7c-0.1-0.1-0.3-0.2-0.4-0.2c0,0,1.7-2.4,1.7-2.4
					c0,0-1.7-1-1.7-1c0.1-0.1,2.8-2.1,2.8-2.1l-0.4-0.2c0,0,3.6-2.7,3.7-2.8l-0.4-0.3c0.1-0.1,3.5-1.3,3.5-1.3l-2-1.2
					c0.1-0.1,7.3-0.2,7.3-0.2c-0.4-0.3-0.8-0.5-1.2-0.7"/>
				<path fill="none" stroke="#000000" stroke-width="2.158" stroke-linecap="round" stroke-linejoin="round" d="M612.7,323.8
					c0,0-5-3.1-5-3.1c0.1-0.2,14.2,4.3,14.4,4l-1.5-0.9c0,0,6.3-1.1,6.5-1.3c0,0-1-0.6-1-0.6l5-2.2l-1.4-0.9c0.1-0.1,4-2.1,4-2.1
					s-2-1.3-2-1.3s2.7-2.1,2.8-2.2l-0.2-0.1l1-4.8c0,0-0.8-0.5-0.8-0.5c0.1-0.1-0.2-4.3-0.2-4.3c0,0-1.6-0.9-1.6-1"/>
			</g>
			<g>
				<path fill="none" stroke="#000000" stroke-width="2.158" stroke-linecap="round" stroke-linejoin="round" d="M481.1,460.7
					c0,0-2-1.2-2-1.2s-0.8-4.7-0.8-4.7c-0.3-0.2-0.6-0.4-0.9-0.6c0,0,0.3-3.3,0.3-3.3l-0.5-0.3l2-3.1c-0.2-0.1-0.4-0.2-0.5-0.3
					c0,0,1.1-3.9,1.2-4c-0.1-0.1-0.2-0.2-0.4-0.2c0,0,3.1-3.1,3.1-3.2c0,0-0.7-0.4-0.7-0.4c0,0,3.2-2.2,3.2-2.2l-0.8-0.5
					c0,0,2.3-2,2.3-2.1c-0.1-0.1-0.2-0.1-0.3-0.2c0,0,2.4-1.7,2.5-1.8l-1.7-1.1l3.4-3.1c0,0-0.4-0.2-0.4-0.2l2.2-2.6l-0.8-0.5
					c0,0,3.2-1.6,3.3-1.7c0,0-0.1-0.1-0.1-0.1c0,0,2.2-2,2.2-2c0,0-0.7-0.4-0.7-0.4l2.3-2.3c-0.2-0.2-0.5-0.3-0.8-0.5
					c0.1-0.1,2.7-3.4,2.8-3.5l-0.4-0.2c0,0,1.4-2.6,1.4-2.6l-0.5-0.3c0-0.1,4.2-1.9,4.2-1.9c0,0-1.1-0.7-1.1-0.7c0,0,3-3.5,3.1-3.6
					c0,0-0.4-0.2-0.4-0.2c0-0.1,1.9-2.5,2-2.5l-0.3-0.2c0,0,1.9-2.3,1.9-2.4c0,0-0.6-0.4-0.6-0.4l3.7-3c0,0-0.4-0.2-0.4-0.2l3-3
					c0,0-1-0.6-1-0.6c0,0,2.7-2,2.7-2c-0.1-0.1-0.3-0.2-0.4-0.2c0.1-0.1,3.6-3.2,3.6-3.2c-0.1-0.1-0.2-0.1-0.3-0.2l2-3.3
					c-0.1-0.1-0.3-0.2-0.4-0.2c0-0.1,3.2-1.9,3.2-1.9s-1.1-0.7-1.1-0.7l1.8-2.9l-0.7-0.4l2.4-2.8c-0.1,0-0.1-0.1-0.2-0.1
					c0-0.1,3.3-1.8,3.3-1.8s-0.9-0.6-0.9-0.6"/>
				<path fill="none" stroke="#000000" stroke-width="2.158" stroke-linecap="round" stroke-linejoin="round" d="M557.9,476.3
					c0,0-4.8-2.7-4.7-2.9c0,0,10.4,2.9,10.4,2.8l-0.3-0.2c0,0,1.7-2.3,1.7-2.3l-0.7-0.4c0.1-0.1,1.3-3,1.3-3.1l-0.3-0.2l-0.3-5.6
					c0,0-0.4-0.2-0.4-0.2s1.6-2.9,1.6-2.9c0,0-0.6-0.4-0.6-0.4s1.4-2.9,1.5-3c0,0-1.4-0.9-1.4-0.9l1.9-4.1l-0.6-0.4
					c0,0,1.4-4.1,1.5-4.2l-0.6-0.4l0.3-3.9c0,0-0.5-0.3-0.5-0.3c0-0.1,1.8-2.9,1.8-3c0,0-2-1.3-2-1.3l1.6-2.8c0,0-0.5-0.3-0.5-0.3
					c0.1-0.1,0.2-4.6,0.2-4.6l-0.2-0.1c0-0.1,2.3-3,2.3-3c0,0-0.8-0.5-0.8-0.5s0.6-4.7,0.7-4.9c0,0-0.4-0.3-0.4-0.3
					c0,0,0.4-4.4,0.5-4.4c0,0-0.6-0.3-0.6-0.4c0-0.1,0-3.4,0-3.5l-2.4-1.5c0,0-1.7-5.6-1.7-5.7c-0.4-0.2-0.7-0.4-1.1-0.7
					c0,0-1.7-5.2-1.6-5.3c0,0-1.9-1.2-1.9-1.2c0.1-0.1-0.2-3.7-0.2-3.7c0-0.1-1.7-1.1-1.7-1.1l-1.1-4.3c-0.1-0.1-0.3-0.2-0.5-0.3
					l-19.9-15.8c0,0-7-4.2-6.9-4.3"/>
				<path fill="none" stroke="#000000" stroke-width="2.158" stroke-linecap="round" stroke-linejoin="round" d="M553,472.1
					l-2.1-1.3c0,0,0.2-5.3,0.2-5.4c0,0-1.6-1-1.6-1c0,0,1.4-4.5,1.4-4.6c-0.2-0.1-0.3-0.2-0.5-0.3c0,0,1.2-2.7,1.2-2.7
					c0,0-1.8-1.1-1.8-1.1c0.1-0.1,1.6-2.8,1.6-2.8l-0.5-0.3c0,0,1.1-4.3,1.2-4.3l-0.5-0.3c0-0.1,1.1-2.8,1.1-2.8l-2-1.2
					c0,0,2.3-3.3,2.3-3.3c-0.3-0.2-0.5-0.4-0.8-0.5c0.1-0.1,1.2-3.8,1.2-3.9c0,0-1.2-0.7-1.2-0.7c0,0,0.2-5.1,0.2-5.2
					c-0.1-0.1-0.2-0.1-0.3-0.2c0,0,1.5-3.3,1.5-3.3c0,0-1.3-0.8-1.3-0.8c0-0.1,0.1-3.9,0.1-3.9c-0.1-0.1-0.1-0.1-0.2-0.1l-2.6-5.5
					l-0.4-0.3c0,0-2.1-6.5-2.1-6.5s-1.4-0.9-1.4-0.9s-2.9-6.8-2.7-7c0,0-2.5-1.5-2.5-1.6c0,0-1.5-4.5-1.5-4.6L538,395"/>
				<path fill="none" stroke="#000000" stroke-width="2.158" stroke-linecap="round" stroke-linejoin="round" d="M482.6,463.1
					c0,0-1.1-0.7-1.1-0.7c0-0.1,3.7-2.6,3.8-2.7l-1.1-0.7c0,0,3.7-2.8,3.8-2.9c0,0-0.9-0.6-0.9-0.6l4.1-2.7l-1.3-0.8
					c0.1-0.1,4.3-1.9,4.3-1.9s-2-1.3-2-1.3s3.6-1.6,3.6-1.6l-0.2-0.1l3.3-3.3c0,0-0.6-0.4-0.6-0.4c0.1-0.1,2.9-2.4,2.9-2.4
					c0,0-0.9-0.6-0.9-0.6s2.9-2.2,2.9-2.3l-1.7-1.1c0,0,3.3-2,3.4-2.1c0,0-0.4-0.2-0.4-0.2l1.9-3.1c-0.2-0.1-0.3-0.2-0.5-0.3
					l3.9-1.6c0,0-0.9-0.6-0.9-0.6c0-0.1,3.2-3.3,3.2-3.3c-0.1-0.1-0.2-0.1-0.4-0.2l2.3-2.2c-0.1-0.1-0.2-0.1-0.4-0.2
					c0,0,3.5-3,3.6-3.1c0,0-0.1,0-0.1-0.1l2.1-3.6c0,0-0.5-0.3-0.5-0.3l3.5-1.7l-0.9-0.6c0.1-0.1,2.2-4,2.2-4.1c0,0-0.3-0.2-0.3-0.2
					l4-2.9c0,0-0.4-0.2-0.4-0.2l3.1-1.6c0,0-1.7-1.1-1.7-1.1c0-0.1,2.8-2.9,2.9-2.9s-0.6-0.4-0.6-0.4s3.4-2.3,3.4-2.3
					s-0.4-0.2-0.4-0.2c0-0.1,2.6-2.6,2.7-2.7c-0.1-0.1-0.2-0.2-0.4-0.2"/>
			</g>
		</g>
	</g>
	<g>
		<path fill="none" stroke="#000000" stroke-width="2.158" stroke-linecap="round" stroke-linejoin="round" d="M541,353.7
			l-21.6-13.5c0.1-0.1,12.4,3.5,12.4,3.5c0.2-0.3-10.2-6.4-10.2-6.4c0.2-0.4,13.3,2.9,13.3,2.9c0.1-0.2-11.4-6.7-11.2-7
			c0-0.1,12.4,3.8,12.4,3.8l-10.3-6.4c0.2-0.3,12.9,4.1,12.9,4.1c0.2-0.3-12.5-7.5-12.3-7.7c0.1-0.1,14.3,4.5,14.3,4.5
			c0.2-0.4-11.1-6.7-11-6.9l12.8,3.6l-9.9-6.2l13.2,3.8l-11.9-7.4c0-0.1,13.9,4.3,14,4.1c0,0-11.3-6.6-11.1-6.9l19.4,7.5
			c0,0-16.3-9.5-16-10c0,0,22.8,11.4,23.1,11l-21.3-13.3"/>
		<path fill="none" stroke="#000000" stroke-width="2.158" stroke-linecap="round" stroke-linejoin="round" d="M526.4,352l-1.8-1.1
			c0.1-0.1,2.3-2.4,2.3-2.4s-7.1-4.4-7-4.4"/>
		<path fill="none" stroke="#000000" stroke-width="2.158" stroke-linecap="round" stroke-linejoin="round" d="M573.2,385.6
			l-35.8-22.3l28.6,14.6c0,0-26.9-15.6-26.3-16.4c0.3-0.4,28,12.6,28.1,12.5l-37.4-23.4l39.5,19.3c0,0-26.5-15.7-26.1-16.3
			c0.3-0.5,29.3,12.9,29.3,12.9c0.2-0.3-25.2-15.7-25.2-15.7s27.4,13.1,27.6,12.8c0.5-0.8-25.4-15.9-25.4-15.9
			c0.3-0.5,26.7,13.1,26.7,13.1c0.3-0.5-25.9-16.2-25.9-16.2c0.2-0.4,28.3,15.5,28.8,14.7c0,0-27.6-16.7-27.3-17.1"/>
		<path fill="none" stroke="#000000" stroke-width="2.158" stroke-linecap="round" stroke-linejoin="round" d="M559.4,384
			c0,0-4.4-2.7-4.4-2.7"/>
		<path fill="none" stroke="#000000" stroke-width="2.158" stroke-linecap="round" stroke-linejoin="round" d="M580.5,413.1
			c0-0.1-3.7-2.3-3.7-2.3c0,0,6.1-0.7,6.2-0.8c0,0-9.8-5.8-9.7-6c0,0,11.5,2.4,11.5,2.4s-10.5-6.4-10.4-6.5"/>
		<path fill="none" stroke="#000000" stroke-width="2.158" stroke-linecap="round" stroke-linejoin="round" d="M622,434.2
			c0.3-0.6-18.7-11.1-18.5-11.5c0,0,8.1,1.1,8.2,1l-20.5-12.8l7.4,0.1l-25.2-15.7l15,5.4l-20.7-12.9c0,0,22,8.6,22,8.6
			s-13.6-8.3-13.5-8.4c0,0,13.5,3.3,13.7,3.1c0.2-0.4-14.5-8.6-14.3-9c0.1-0.1,14.3,4.6,14.5,4.2l-13.5-8.4l13.8,4.6
			c0.2-0.3-12.1-7.6-12.1-7.6s13.1,4.2,13.3,3.8c0.2-0.4-13.6-8.2-13.5-8.4c0,0,13.5,5.3,13.8,4.9c0,0-13.1-8-13-8.1
			c0,0,14.3,5.1,14.3,5c0,0-13.9-8-13.6-8.5l15.3,6c0.1-0.1-15.2-8.9-14.9-9.3c0.3-0.4,15,5.3,15.2,4.9c0,0-39.6-24.4-39.4-24.6
			l39,20.2c0.5-0.8-36.9-23.1-36.9-23.1c0.6-0.9,38.1,20.4,38.8,19.3c0.1-0.1-37.6-21.8-36.8-23l36.8,18.4
			c0.2-0.3-34.2-21.4-34.2-21.4s35.7,17.9,35.8,17.7l-34.3-21.4c0.5-0.8,35.2,18.5,35.2,18.5c0.5-0.8-32.9-20.6-32.9-20.6
			c0.1-0.1,32.4,17.3,32.9,16.5c0.4-0.7-55-34.4-55-34.4l55.9,31.3c0.9-1.5-49.2-30.4-49-30.6c0,0,48.9,27.8,49.3,27.2
			c0,0-42.9-25.6-42.3-26.5c0.3-0.5,43,23.9,43.7,22.8c0.5-0.7-33.3-20.8-33.3-20.8c0.3-0.5,31.7,15.9,32.2,14.9
			c0,0-22.7-13.4-22.3-13.9l20.5,7.5c0,0-8.6-5.2-8.5-5.3"/>
		<path fill="none" stroke="#000000" stroke-width="2.158" stroke-linecap="round" stroke-linejoin="round" d="M575.2,478.9
			c0,0-3.3-1.9-3.2-2c0.1-0.1,10.4,3.2,10.5,2.9c0.1-0.1-10.8-6.5-10.7-6.7l20.8,8.6c0.1-0.2-18.6-11.6-18.6-11.6
			s25.6,13.1,25.9,12.6c0.4-0.7-23.6-14.7-23.6-14.8c0,0,31.3,16.1,31.4,16c0,0-29.3-17.4-28.9-18c0,0,36.9,19.9,37.4,19.1
			c0.6-0.9-34.8-21.3-34.6-21.6c0.8-1.4,43.3,22.6,43.3,22.6c0.5-0.8-40.9-25.2-40.8-25.5l47.9,26.4l-44-27.5
			c0,0,51.4,30.4,52.5,28.8c1-1.6-51.3-32.1-51.3-32.1l63,34.5c0,0-58.8-35.3-58.2-36.3c1.2-1.9,66.7,37.6,66.7,37.6
			c0.7-1.1-65-39.4-64.5-40.3c0.5-0.8,71.6,41.1,71.6,41.1l-69.5-43.4l77.5,44.7c0,0-76.6-44.4-75-46.9c1.1-1.8,84.1,47.7,84.1,47.7
			c0.4-0.6-81.3-50.8-81.3-50.8c1.9-3,90.6,55.4,92.3,52.7c0,0-89.6-53.1-88.3-55.2l95.5,56.1c0,0-93.8-54.4-91.9-57.4
			c0,0,98.5,61.8,100.2,59c1.3-2-100.5-59.6-99.1-61.9L722.2,501c1.4-2.2-107.4-67.1-107.4-67.1L729,500.5l-103.4-64.6
			c1.1-1.8,102.6,64,104.2,61.5c0,0-103.4-59.7-101.2-63.2c2.1-3.4,100.2,58.4,100.2,58.4s-99.1-60.7-98.5-61.6
			c1.5-2.4,93.2,57.6,94.6,55.5c1.5-2.4-92.9-53.8-91-56.9c0.4-0.6,86.2,52.3,87.9,49.5l-84.4-52.8c0.3-0.5,81,49.1,81.9,47.5
			l-79.6-49.8c0.6-0.9,75.7,45.2,76.5,43.8c0,0-75.4-44.2-74.1-46.3s68.6,39.8,69.4,38.5c0.2-0.4-67.1-40.8-66.6-41.6
			c1.3-2.1,61.2,35.3,62.1,33.8c0,0-59-34.8-58.1-36.3c0.5-0.8,54.3,29.7,54.4,29.6c0.9-1.5-52.1-31.6-51.7-32.3
			c0.8-1.3,46.4,26.7,47.3,25.3c0.8-1.3-44.5-27.8-44.5-27.8c0.6-1,41.4,23,41.6,22.6c0.2-0.2-39.5-24.7-39.5-24.7
			s35.8,17.1,35.9,17l-27.8-17.4c0,0,21.5,8.3,21.6,8.2l-13.1-8.2"/>
		<g>
			<path fill="none" stroke="#000000" stroke-width="2.158" stroke-linecap="round" stroke-linejoin="round" d="M541.6,353.2
				c0,0-5.1-3-5-3.1l-3.5-7.6c-0.1-0.1-0.3-0.2-0.4-0.3c0,0,2.3-2.7,2.4-2.7s-1-0.6-0.9-0.6c0,0,4.5-2,4.5-2s-1.6-1-1.6-1l2.7-1.9
				l-0.9-0.5l2.6-1.9c-0.1-0.1-0.3-0.1-0.4-0.2c0,0,2.7-2.8,2.8-2.9l-0.4-0.2c0-0.1,2.2-2.1,2.2-2.1c-0.1-0.1-0.3-0.2-0.4-0.2
				l1.3-2.7c0,0-0.1,0-0.1-0.1l6.2,0.6c0,0-2.2-1.3-2.2-1.4c0.1-0.2,11.4,2.2,11.4,2.2s-2.2-1.3-2.2-1.4"/>
			<path fill="none" stroke="#000000" stroke-width="2.158" stroke-linecap="round" stroke-linejoin="round" d="M543.1,355.7
				l-1.4-0.9c0,0,4.8-2,4.8-2l-0.6-0.4c0,0,2.4-2.5,2.4-2.5c0,0-1.1-0.6-1-0.7s3.5-2.1,3.6-2.2l-1.2-0.8c0,0,2.7-2.6,2.8-2.6
				c-0.1-0.1-0.2-0.1-0.4-0.2l2.7-3c-0.1-0.1-0.2-0.1-0.4-0.2c0,0,2.4-2.6,2.5-2.7c0,0-0.4-0.2-0.4-0.2c0,0,2.7-3.4,2.8-3.6
				c0,0-0.1,0-0.1-0.1c0.1-0.1,3.8-2.9,3.8-2.9c0,0-0.7-0.4-0.7-0.4s2.8-2.7,2.8-2.7l-0.3-0.2l1.1-3.5c-0.2-0.1-0.3-0.2-0.5-0.3"/>
			<path fill="none" stroke="#000000" stroke-width="2.158" stroke-linecap="round" stroke-linejoin="round" d="M573.5,384.9l-3.2-2
				c0.1-0.2-3.4-6.5-3.4-6.5c-0.1,0-0.2-0.1-0.2-0.1l2.2-2.5c-0.1-0.1-0.3-0.2-0.4-0.2c0-0.1,2.9-2.1,2.9-2.1c0,0-1-0.6-1-0.6
				c0,0,2.6-3.4,2.6-3.4c0,0-0.8-0.5-0.8-0.5c0.1-0.1,2.9-1.6,2.9-1.6s-0.4-0.2-0.4-0.2c0,0,1.6-2.9,1.6-2.9l-0.2-0.1"/>
			<path fill="none" stroke="#000000" stroke-width="2.158" stroke-linecap="round" stroke-linejoin="round" d="M575.3,387.7
				c0,0-1.3-0.8-1.3-0.8s2-2.6,2.1-2.7s-0.4-0.3-0.4-0.3l1-3.1l-0.4-0.3c0,0,1.2-2.6,1.3-2.7c0,0-0.7-0.4-0.7-0.4s0.8-2.8,0.9-2.9
				l-0.4-0.3c0.1-0.1,1.1-3.9,1.1-3.9l-0.4-0.3c0.1-0.1,1-2.9,1-2.9s-0.4-0.3-0.4-0.3s1-3.5,1-3.6l-0.6-0.4l1.9-3.1l-0.7-0.4"/>
			<path fill="none" stroke="#000000" stroke-width="2.158" stroke-linecap="round" stroke-linejoin="round" d="M573.1,477.1
				c0,0-0.8-0.5-0.8-0.5s0.4-3.2,0.4-3.2c0,0-1.1-0.7-1.1-0.7l2.6-2c0,0-1.5-0.9-1.5-1l4.8-2.3c-0.1-0.1-0.2-0.1-0.3-0.2
				c0,0,3-2.2,3.1-2.2l-0.4-0.2c0-0.1,2.4-1.9,2.4-1.9l-0.8-0.5l4.8-2.5l-0.4-0.2c0,0,3-1.9,3-1.9l-0.8-0.5l3.7-1.5
				c0,0-0.7-0.4-0.7-0.4c0.1-0.1,2.6-1.8,2.6-1.8l-0.4-0.2l4.7-2.4c0,0-2-1.2-1.9-1.2l4.9-2c-0.1-0.1-0.2-0.1-0.3-0.2
				c0.1-0.1,4.1-2.4,4.1-2.4l-0.4-0.2c0.1-0.1,3.7-2.9,3.7-2.9s-1.4-0.8-1.3-0.8c0.1-0.1,3.8-2.3,3.9-2.4l-0.4-0.2
				c0,0,8.3,1.6,8.4,1.4l-5.2-3.3c0-0.1,3.5-1.2,3.5-1.2s-3.1-1.9-3.1-1.9c0.1-0.1-10.7-11.5-10.6-11.7c0,0-4.5-2.8-4.4-2.8
				c0.1-0.1-9.2-9.8-9-10l-3.5-2.2"/>
			<path fill="none" stroke="#000000" stroke-width="2.158" stroke-linecap="round" stroke-linejoin="round" d="M580.1,413.5
				c0.1-0.1-3.5-2.1-3.5-2.2c0.1-0.2,7.1-0.6,7.2-0.8l-0.6-0.4c0,0,2.2-2,2.2-2l-0.4-0.2"/>
			<path fill="none" stroke="#000000" stroke-width="2.158" stroke-linecap="round" stroke-linejoin="round" d="M577.9,410.9
				c0,0-1.9-1.1-1.9-1.2l-1.9-6c0,0-2.2-1.3-2.1-1.3s1.7-4.3,1.7-4.5l-0.1,0c0-0.1,0.6-3.9,0.6-4c0,0-1-0.6-1-0.6
				c0.2-0.4-9.2-9.7-9-10.1c0-0.1-1.8-1.1-1.8-1.1"/>
			
				<line fill="none" stroke="#000000" stroke-width="2.158" stroke-linecap="round" stroke-linejoin="round" x1="560.3" y1="385.3" x2="554.3" y2="381.6"/>
			<path fill="none" stroke="#000000" stroke-width="2.158" stroke-linecap="round" stroke-linejoin="round" d="M554.8,380.6
				l-11.6-7.2c0.2-0.3-6.8-8.1-6.8-8.1L536,365c0.1-0.1,2.3-3.8,2.3-3.8c-0.1-0.1-0.2-0.2-0.4-0.2c0,0,0.2-3.3,0.2-3.4
				c-0.7-0.5-1.4-0.9-2.1-1.3"/>
			<path fill="none" stroke="#000000" stroke-width="2.158" stroke-linecap="round" stroke-linejoin="round" d="M525.6,352.3
				l-1.9-1.2l4.2-0.7c-0.2-0.1-0.5-0.3-0.7-0.4"/>
			<path fill="none" stroke="#000000" stroke-width="2.158" stroke-linecap="round" stroke-linejoin="round" d="M522.5,348.9
				c0,0-0.9-0.5-0.9-0.5c0-0.1-2.4-6.6-2.4-6.7c-0.1-0.1-0.2-0.1-0.2-0.2c0,0,1.9-3.6,1.9-3.7c-0.2-0.1-0.4-0.3-0.6-0.4
				c0.1-0.1,2.8-3.2,2.8-3.2l-2-1.3c0,0,2.6-2.1,2.6-2.1l-0.4-0.3c0,0,3.9-3,4-3.1c-0.1-0.1-0.2-0.2-0.4-0.2c0,0,3.4-3.4,3.4-3.4
				l-0.4-0.2c0.1-0.1,3.9-2.7,3.9-2.7s-2-1.2-2-1.2c0.1-0.1,3.9-2.9,3.9-3c0,0-0.6-0.4-0.6-0.4c0.1-0.1,2.9-1.8,2.9-1.8l-0.4-0.2
				l2.4-2.2l-0.4-0.2c0-0.1,2.4-1.8,2.4-1.9c0,0-0.1,0-0.1-0.1c0,0,2-2.9,2-2.9s-0.9-0.6-0.9-0.6s12,2.5,12,2.5s-2.1-1.3-2.1-1.3
				c0-0.1,12.2,3.2,12.4,2.9l-2.9-1.8c0-0.1,10.3,2.3,10.4,2.1c-0.1-0.1-0.3-0.2-0.5-0.3c0.1-0.2,10.5,2.6,10.7,2.4l-1-0.7L594,315
				c0.1-0.1-2.5-1.5-2.5-1.5"/>
			<path fill="none" stroke="#000000" stroke-width="2.158" stroke-linecap="round" stroke-linejoin="round" d="M622.9,433.9
				c0-0.1-4-2.4-3.9-2.5c0,0-9.8-10.5-9.7-10.7c-1-0.5-1.9-1.1-2.8-1.7c0,0-10.2-11.1-10.2-11.1s-2-1.2-2-1.2c0-0.1-4.8-7.1-4.6-7.3
				c0,0-1.7-1.1-1.7-1.1s1.8-3.4,1.8-3.4l-0.4-0.3c0,0,1.2-3.6,1.2-3.6c0,0-1.4-0.8-1.4-0.8c0,0,2.2-3.7,2.2-3.8
				c-0.1-0.1-0.3-0.2-0.4-0.3c0,0,2-3.3,2-3.3l-0.4-0.2c0,0,0.4-4.6,0.4-4.7c-0.1-0.1-0.3-0.2-0.4-0.3c0,0,0.5-4.5,0.5-4.5l-0.2-0.1
				c0,0,2.2-2.4,2.2-2.5c0,0-0.7-0.4-0.7-0.4s0.7-3,0.7-3l-0.4-0.3c0,0,1.4-4.5,1.5-4.6l-0.5-0.3l0.9-2.9c0,0-0.4-0.2-0.4-0.3
				c0-0.1,1.7-3.7,1.8-3.8l-0.1-0.1c0,0,0.1-3.2,0.2-3.3c-0.1-0.1-0.3-0.2-0.4-0.3c0-0.1,1.3-2.5,1.3-2.5c0,0-0.5-0.2-0.4-0.3
				s1.4-3.4,1.4-3.4c0,0-0.9-0.5-0.9-0.5s0.8-3,0.9-3l-0.4-0.3c0,0,0.2-3.5,0.2-3.5c-0.1,0-0.1-0.1-0.2-0.1c0,0,1.2-4.4,1.3-4.6
				c-0.2-0.1-0.3-0.2-0.5-0.3c0,0,1.9-4,2-4.1c-0.1-0.1-0.3-0.2-0.4-0.3c0.1-0.1-0.2-4.9-0.2-5.1l-0.5-0.3c0.1-0.1-2.6-6.1-2.5-6.2
				c0.1-0.1-5.2-3-5.1-3.2"/>
			<path fill="none" stroke="#000000" stroke-width="2.158" stroke-linecap="round" stroke-linejoin="round" d="M624.1,436.2
				c-0.1-0.1-0.2-0.1-0.3-0.2c0,0,3.7-1.7,3.8-1.8l-1.1-0.7l3.7-2.3l-1-0.6l4.3-1.3l-1.4-0.9c0,0,5.2-2,5.2-2s-0.4-0.2-0.4-0.2
				s3.3-3.3,3.3-3.4c0,0-1.2-0.7-1.1-0.7c0,0,3.7-2.4,3.7-2.5l-0.2-0.1l3.5-1.9c-0.1-0.1-0.3-0.2-0.4-0.2c0,0,2.8-2.6,2.9-2.7
				c0,0,0,0,0,0s3-1.7,3-1.8c0,0-0.4-0.2-0.4-0.2s3.1-2,3.1-2c-0.1-0.1-0.3-0.2-0.4-0.2l4.2-1c0,0-1.5-0.9-1.4-0.9
				c0.1-0.2,6.6-0.3,6.7-0.4c0,0-0.4-0.2-0.4-0.2l6.9,0.1c0,0-1.3-0.8-1.3-0.8"/>
			<path fill="none" stroke="#000000" stroke-width="2.158" stroke-linecap="round" stroke-linejoin="round" d="M575,479.4
				c0,0-3.5-2-3.4-2.1c0.1-0.1,10.5,3.3,10.7,3c0,0-1.9-1.1-1.8-1.1l11.9,3c0,0-2.3-1.5-2.3-1.5s9.5,2.6,9.6,2.4
				c0-0.1-2.3-1.4-2.3-1.4s10,2.7,10,2.7c0,0-2.5-1.5-2.5-1.5c0,0,10.9,2.8,11.1,2.6c0-0.1-2.2-1.3-2.1-1.3
				c0.2-0.3,10.9,2.3,10.9,2.3c0,0-1.9-1.2-1.9-1.2l9.1,2.1l-0.1-0.1c0,0,8.4,1.6,8.6,1.4c-0.6-0.4-1.2-0.8-1.8-1.1l13.5,3.6
				c0,0-1.7-1-1.7-1.1c0.2-0.3,10.3,2.3,10.3,2.3c0,0-2.3-1.4-2.3-1.4c0.1-0.1,9.5,2.2,9.5,2.2l-2.1-1.3l10,2.6c0,0-2.5-1.4-2.4-1.5
				c0.1-0.2,11.5,2.3,11.5,2.3l-1.8-1.1c0.2-0.4,12.5,3.3,12.7,3c0,0-1.8-1-1.8-1.1l8.9,2c-0.2-0.1-0.3-0.2-0.5-0.3
				c0,0,8.6,2.1,8.8,1.8c0,0-2.8-1.7-2.7-1.7l13.5,3.4c0,0-1.8-1.2-1.8-1.2l8.8,0.8l-1-0.6c0,0,2.7-1.9,2.7-2
				c-0.1-0.1-0.3-0.1-0.4-0.2c0.1-0.1-0.2-4.4-0.2-4.4s-1.9-1.2-1.9-1.2c0.1-0.1-1.1-4.1-1-4.2c0,0-1.1-0.6-1.1-0.7s-3-7-2.9-7.2
				l-0.8-0.5c0,0-1.8-4.7-1.7-4.7l-1.4-0.9c0-0.1-1.8-5-1.7-5.1c0,0-1.9-1.1-1.9-1.2c0.1-0.2-2.9-6.5-2.8-6.6c0,0-1.7-1-1.7-1
				c0.1-0.2-2.8-6.6-2.7-6.8c-0.3-0.2-0.6-0.3-0.8-0.5c0.1-0.1-2.8-6.2-2.8-6.2c0,0-1.3-0.8-1.3-0.8c0.1-0.2-3.2-6-3.1-6.2
				c-0.2-0.2-0.5-0.3-0.7-0.4c0.1-0.1-2.2-4.7-2.2-4.7c0,0-1.3-0.8-1.3-0.8s-2.3-6.8-2.3-6.9l-1.3-0.8c0,0-4.9-8.2-4.9-8.3l-0.7-0.4
				"/>
		</g>
	</g>
</g>
<rect fill="none" width="1190.6" height="841.9"/>
</svg>
